<svg version="1.1" viewBox="0.0 0.0 600.0 371.0" fill="none" stroke="none" stroke-linecap="square" stroke-miterlimit="10" width="600" height="371" xmlns:xlink="http://www.w3.org/1999/xlink" xmlns="http://www.w3.org/2000/svg"><path fill="#ffffff" d="M0 0L600.0 0L600.0 371.0L0 371.0L0 0Z" fill-rule="nonzero"/><path stroke="#333333" stroke-width="1.0" stroke-linecap="butt" d="M72.5 334.5L581.5 334.5" fill-rule="nonzero"/><path stroke="#cccccc" stroke-width="1.0" stroke-linecap="butt" d="M72.5 241.5L581.5 241.5" fill-rule="nonzero"/><path stroke="#cccccc" stroke-width="1.0" stroke-linecap="butt" d="M72.5 149.5L581.5 149.5" fill-rule="nonzero"/><path stroke="#cccccc" stroke-width="1.0" stroke-linecap="butt" d="M72.5 56.5L581.5 56.5" fill-rule="nonzero"/><clipPath id="id_0"><path d="M72.55 56.916668L581.45 56.916668L581.45 334.45L72.55 334.45L72.55 56.916668Z" clip-rule="nonzero"/></clipPath><path stroke="#000000" stroke-width="2.0" stroke-linecap="butt" stroke-opacity="0.0" clip-path="url(#id_0)" d="M168.0 334.0L106.0 334.0L106.0 299.0C106.0 297.89542 106.89543 297.0 108.0 297.0L166.0 297.0C167.10457 297.0 168.0 297.89542 168.0 299.0Z" fill-rule="nonzero"/><path fill="#4f81bd" clip-path="url(#id_0)" d="M168.0 334.0L106.0 334.0L106.0 299.0C106.0 297.89542 106.89543 297.0 108.0 297.0L166.0 297.0C167.10457 297.0 168.0 297.89542 168.0 299.0Z" fill-rule="nonzero"/><path stroke="#000000" stroke-width="2.0" stroke-linecap="butt" stroke-opacity="0.0" clip-path="url(#id_0)" d="M263.0 334.0L201.0 334.0L201.0 323.0C201.0 321.89542 201.89543 321.0 203.0 321.0L261.0 321.0C262.10458 321.0 263.0 321.89542 263.0 323.0Z" fill-rule="nonzero"/><path fill="#4f81bd" clip-path="url(#id_0)" d="M263.0 334.0L201.0 334.0L201.0 323.0C201.0 321.89542 201.89543 321.0 203.0 321.0L261.0 321.0C262.10458 321.0 263.0 321.89542 263.0 323.0Z" fill-rule="nonzero"/><path stroke="#000000" stroke-width="2.0" stroke-linecap="butt" stroke-opacity="0.0" clip-path="url(#id_0)" d="M358.0 334.0L296.0 334.0L296.0 283.0C296.0 281.89542 296.89542 281.0 298.0 281.0L356.0 281.0C357.10458 281.0 358.0 281.89542 358.0 283.0Z" fill-rule="nonzero"/><path fill="#4f81bd" clip-path="url(#id_0)" d="M358.0 334.0L296.0 334.0L296.0 283.0C296.0 281.89542 296.89542 281.0 298.0 281.0L356.0 281.0C357.10458 281.0 358.0 281.89542 358.0 283.0Z" fill-rule="nonzero"/><path stroke="#000000" stroke-width="2.0" stroke-linecap="butt" stroke-opacity="0.0" clip-path="url(#id_0)" d="M453.0 334.0L391.0 334.0L391.0 81.0C391.0 79.89543 391.89542 79.0 393.0 79.0L451.0 79.0C452.10458 79.0 453.0 79.89543 453.0 81.0Z" fill-rule="nonzero"/><path fill="#4f81bd" clip-path="url(#id_0)" d="M453.0 334.0L391.0 334.0L391.0 81.0C391.0 79.89543 391.89542 79.0 393.0 79.0L451.0 79.0C452.10458 79.0 453.0 79.89543 453.0 81.0Z" fill-rule="nonzero"/><path stroke="#000000" stroke-width="2.0" stroke-linecap="butt" stroke-opacity="0.0" clip-path="url(#id_0)" d="M548.0 334.0L486.0 334.0L486.0 333.5C486.0 333.22385 486.22385 333.0 486.5 333.0L547.5 333.0C547.7761 333.0 548.0 333.22385 548.0 333.5Z" fill-rule="nonzero"/><path fill="#4f81bd" clip-path="url(#id_0)" d="M548.0 334.0L486.0 334.0L486.0 333.5C486.0 333.22385 486.22385 333.0 486.5 333.0L547.5 333.0C547.7761 333.0 548.0 333.22385 548.0 333.5Z" fill-rule="nonzero"/><path fill="#000000" d="M27.128138 198.94896Q27.253138 198.94896 27.331263 198.99583Q27.409388 199.02708 27.471888 199.08958Q27.518763 199.13646 27.550013 199.21458Q27.565638 199.29271 27.565638 199.37083L27.565638 199.69896Q27.565638 199.83958 27.534388 199.96458Q27.503138 200.07396 27.425013 200.18333Q27.331263 200.27708 27.190638 200.38646Q27.034388 200.48021 26.815638 200.60521L22.503138 202.99583Q22.159388 203.18333 21.800013 203.38646Q21.425013 203.57396 21.081263 203.73021L21.081263 203.74583Q21.503138 203.73021 21.956263 203.73021Q22.393763 203.71458 22.815638 203.71458L27.393763 203.71458Q27.440638 203.71458 27.487513 203.74583Q27.518763 203.76146 27.534388 203.82396Q27.550013 203.87083 27.565638 203.96458Q27.581263 204.05833 27.581263 204.19896Q27.581263 204.33958 27.565638 204.43333Q27.550013 204.52708 27.534388 204.57396Q27.518763 204.62083 27.487513 204.65208Q27.440638 204.66771 27.393763 204.66771L20.393763 204.66771Q20.159388 204.66771 20.065638 204.54271Q19.971888 204.41771 19.971888 204.26146L19.971888 203.77708Q19.971888 203.62083 20.003138 203.51146Q20.018763 203.38646 20.096888 203.29271Q20.159388 203.19896 20.284388 203.12083Q20.393763 203.02708 20.581263 202.93333L23.909388 201.08958Q24.221888 200.91771 24.518763 200.76146Q24.800013 200.60521 25.081263 200.46458Q25.362513 200.30833 25.643763 200.16771Q25.909388 200.02708 26.175013 199.88646L26.175013 199.88646Q25.721888 199.88646 25.221888 199.90208Q24.706263 199.90208 24.253138 199.90208L20.143763 199.90208Q20.096888 199.90208 20.065638 199.88646Q20.018763 199.85521 20.003138 199.80833Q19.971888 199.74583 19.971888 199.65208Q19.956263 199.55833 19.956263 199.41771Q19.956263 199.27708 19.971888 199.18333Q19.971888 199.08958 20.003138 199.04271Q20.018763 198.99583 20.065638 198.98021Q20.096888 198.94896 20.143763 198.94896L27.128138 198.94896Z" fill-rule="nonzero"/><path fill="#000000" d="M66.22188 333.6375Q66.22188 334.5125 66.08125 335.23126Q65.94063 335.95 65.6125 336.48126Q65.3 336.9969 64.78438 337.27814Q64.26875 337.5594 63.51875 337.5594Q62.8 337.5594 62.3 337.3094Q61.815624 337.04376 61.51875 336.5594Q61.221874 336.0594 61.096874 335.34064Q60.971874 334.60626 60.971874 333.66876Q60.971874 332.8094 61.1125 332.09064Q61.253124 331.35626 61.565624 330.84064Q61.89375 330.325 62.409374 330.04376Q62.925 329.7625 63.675 329.7625Q64.39375 329.7625 64.87813 330.0125Q65.3625 330.2625 65.65938 330.7625Q65.97188 331.2625 66.09688 331.98126Q66.22188 332.7 66.22188 333.6375ZM65.19063 333.71564Q65.19063 333.1375 65.14375 332.7Q65.09688 332.2469 65.01875 331.90314Q64.94063 331.54376 64.81563 331.29376Q64.69063 331.04376 64.51875 330.8875Q64.34688 330.73126 64.1125 330.65314Q63.89375 330.575 63.6125 330.575Q63.1125 330.575 62.8 330.8094Q62.4875 331.04376 62.3 331.46564Q62.128124 331.8719 62.065624 332.41876Q62.003124 332.96564 62.003124 333.60626Q62.003124 334.45 62.08125 335.04376Q62.175 335.6375 62.3625 336.0125Q62.565624 336.3875 62.8625 336.5594Q63.159374 336.73126 63.58125 336.73126Q63.909374 336.73126 64.14375 336.6375Q64.39375 336.52814 64.56563 336.34064Q64.75313 336.1375 64.8625 335.85626Q64.9875 335.575 65.05 335.2469Q65.12813 334.91876 65.15938 334.52814Q65.19063 334.1375 65.19063 333.71564Z" fill-rule="nonzero"/><path fill="#000000" d="M59.925 242.50139Q59.925 243.11076 59.721874 243.59514Q59.51875 244.06389 59.14375 244.39201Q58.76875 244.70451 58.253124 244.87639Q57.7375 245.04826 57.096874 245.04826Q56.753124 245.04826 56.425 245.00139Q56.1125 244.95451 55.8625 244.87639Q55.628124 244.79826 55.45625 244.73576Q55.3 244.65764 55.253124 244.62639Q55.221874 244.57951 55.20625 244.54826Q55.190624 244.51701 55.175 244.47014Q55.159374 244.40764 55.14375 244.32951Q55.14375 244.25139 55.14375 244.15764Q55.14375 244.04826 55.14375 243.97014Q55.159374 243.89201 55.175 243.84514Q55.20625 243.79826 55.2375 243.78264Q55.26875 243.75139 55.315624 243.75139Q55.378124 243.75139 55.4875 243.82951Q55.6125 243.89201 55.815624 243.98576Q56.034374 244.06389 56.33125 244.14201Q56.64375 244.22014 57.065624 244.22014Q57.45625 244.22014 57.784374 244.12639Q58.1125 244.03264 58.346874 243.82951Q58.596874 243.62639 58.721874 243.32951Q58.8625 243.03264 58.8625 242.59514Q58.8625 242.23576 58.7375 241.95451Q58.628124 241.67326 58.39375 241.48576Q58.159374 241.29826 57.8 241.22014Q57.440624 241.12639 56.925 241.12639Q56.565624 241.12639 56.3 241.15764Q56.05 241.18889 55.83125 241.18889Q55.675 241.18889 55.596874 241.12639Q55.534374 241.04826 55.534374 240.82951L55.534374 237.73576Q55.534374 237.54826 55.6125 237.45451Q55.70625 237.36076 55.878124 237.36076L59.2375 237.36076Q59.284374 237.36076 59.33125 237.39201Q59.378124 237.40764 59.39375 237.47014Q59.425 237.51701 59.440624 237.59514Q59.45625 237.67326 59.45625 237.78264Q59.45625 238.00139 59.39375 238.12639Q59.346874 238.23576 59.2375 238.23576L56.409374 238.23576L56.409374 240.36076Q56.6125 240.32951 56.815624 240.32951Q57.034374 240.31389 57.315624 240.31389Q57.971874 240.31389 58.45625 240.47014Q58.940624 240.62639 59.26875 240.92326Q59.596874 241.20451 59.753124 241.61076Q59.925 242.00139 59.925 242.50139ZM66.22188 241.12639Q66.22188 242.00139 66.08125 242.72014Q65.94063 243.43889 65.6125 243.97014Q65.3 244.48576 64.78438 244.76701Q64.26875 245.04826 63.51875 245.04826Q62.8 245.04826 62.3 244.79826Q61.815624 244.53264 61.51875 244.04826Q61.221874 243.54826 61.096874 242.82951Q60.971874 242.09514 60.971874 241.15764Q60.971874 240.29826 61.1125 239.57951Q61.253124 238.84514 61.565624 238.32951Q61.89375 237.81389 62.409374 237.53264Q62.925 237.25139 63.675 237.25139Q64.39375 237.25139 64.87813 237.50139Q65.3625 237.75139 65.65938 238.25139Q65.97188 238.75139 66.09688 239.47014Q66.22188 240.18889 66.22188 241.12639ZM65.19063 241.20451Q65.19063 240.62639 65.14375 240.18889Q65.09688 239.73576 65.01875 239.39201Q64.94063 239.03264 64.81563 238.78264Q64.69063 238.53264 64.51875 238.37639Q64.34688 238.22014 64.1125 238.14201Q63.89375 238.06389 63.6125 238.06389Q63.1125 238.06389 62.8 238.29826Q62.4875 238.53264 62.3 238.95451Q62.128124 239.36076 62.065624 239.90764Q62.003124 240.45451 62.003124 241.09514Q62.003124 241.93889 62.08125 242.53264Q62.175 243.12639 62.3625 243.50139Q62.565624 243.87639 62.8625 244.04826Q63.159374 244.22014 63.58125 244.22014Q63.909374 244.22014 64.14375 244.12639Q64.39375 244.01701 64.56563 243.82951Q64.75313 243.62639 64.8625 243.34514Q64.9875 243.06389 65.05 242.73576Q65.12813 242.40764 65.15938 242.01701Q65.19063 241.62639 65.19063 241.20451Z" fill-rule="nonzero"/><path fill="#000000" d="M53.9875 152.02153Q53.9875 152.14653 53.95625 152.22466Q53.940624 152.28716 53.909374 152.33403Q53.89375 152.3809 53.846874 152.41216Q53.815624 152.42778 53.76875 152.42778L49.815624 152.42778Q49.76875 152.42778 49.7375 152.41216Q49.70625 152.3809 49.659374 152.33403Q49.628124 152.28716 49.6125 152.22466Q49.596874 152.14653 49.596874 152.02153Q49.596874 151.92778 49.6125 151.84966Q49.628124 151.77153 49.659374 151.72466Q49.690624 151.67778 49.721874 151.64653Q49.76875 151.61528 49.815624 151.61528L51.39375 151.61528L51.39375 145.84966L49.925 146.72466Q49.815624 146.78716 49.7375 146.80278Q49.675 146.80278 49.628124 146.77153Q49.596874 146.72466 49.58125 146.64653Q49.565624 146.55278 49.565624 146.42778Q49.565624 146.3184 49.565624 146.2559Q49.58125 146.17778 49.596874 146.1309Q49.628124 146.08403 49.659374 146.05278Q49.690624 146.02153 49.7375 145.97466L51.4875 144.86528Q51.503124 144.84966 51.534374 144.83403Q51.58125 144.8184 51.628124 144.8184Q51.690624 144.80278 51.753124 144.80278Q51.83125 144.78716 51.925 144.78716Q52.065624 144.78716 52.159374 144.80278Q52.253124 144.8184 52.3 144.83403Q52.3625 144.84966 52.378124 144.89653Q52.39375 144.92778 52.39375 144.95903L52.39375 151.61528L53.76875 151.61528Q53.815624 151.61528 53.846874 151.64653Q53.89375 151.67778 53.925 151.72466Q53.95625 151.77153 53.971874 151.84966Q53.9875 151.92778 53.9875 152.02153ZM60.221874 148.61528Q60.221874 149.49028 60.08125 150.20903Q59.940624 150.92778 59.6125 151.45903Q59.3 151.97466 58.784374 152.2559Q58.26875 152.53716 57.51875 152.53716Q56.8 152.53716 56.3 152.28716Q55.815624 152.02153 55.51875 151.53716Q55.221874 151.03716 55.096874 150.3184Q54.971874 149.58403 54.971874 148.64653Q54.971874 147.78716 55.1125 147.0684Q55.253124 146.33403 55.565624 145.8184Q55.89375 145.30278 56.409374 145.02153Q56.925 144.74028 57.675 144.74028Q58.39375 144.74028 58.878124 144.99028Q59.3625 145.24028 59.659374 145.74028Q59.971874 146.24028 60.096874 146.95903Q60.221874 147.67778 60.221874 148.61528ZM59.190624 148.6934Q59.190624 148.11528 59.14375 147.67778Q59.096874 147.22466 59.01875 146.8809Q58.940624 146.52153 58.815624 146.27153Q58.690624 146.02153 58.51875 145.86528Q58.346874 145.70903 58.1125 145.6309Q57.89375 145.55278 57.6125 145.55278Q57.1125 145.55278 56.8 145.78716Q56.4875 146.02153 56.3 146.4434Q56.128124 146.84966 56.065624 147.39653Q56.003124 147.9434 56.003124 148.58403Q56.003124 149.42778 56.08125 150.02153Q56.175 150.61528 56.3625 150.99028Q56.565624 151.36528 56.8625 151.53716Q57.159374 151.70903 57.58125 151.70903Q57.909374 151.70903 58.14375 151.61528Q58.39375 151.5059 58.565624 151.3184Q58.753124 151.11528 58.8625 150.83403Q58.9875 150.55278 59.05 150.22466Q59.128124 149.89653 59.159374 149.5059Q59.190624 149.11528 59.190624 148.6934ZM66.22188 148.61528Q66.22188 149.49028 66.08125 150.20903Q65.94063 150.92778 65.6125 151.45903Q65.3 151.97466 64.78438 152.2559Q64.26875 152.53716 63.51875 152.53716Q62.8 152.53716 62.3 152.28716Q61.815624 152.02153 61.51875 151.53716Q61.221874 151.03716 61.096874 150.3184Q60.971874 149.58403 60.971874 148.64653Q60.971874 147.78716 61.1125 147.0684Q61.253124 146.33403 61.565624 145.8184Q61.89375 145.30278 62.409374 145.02153Q62.925 144.74028 63.675 144.74028Q64.39375 144.74028 64.87813 144.99028Q65.3625 145.24028 65.65938 145.74028Q65.97188 146.24028 66.09688 146.95903Q66.22188 147.67778 66.22188 148.61528ZM65.19063 148.6934Q65.19063 148.11528 65.14375 147.67778Q65.09688 147.22466 65.01875 146.8809Q64.94063 146.52153 64.81563 146.27153Q64.69063 146.02153 64.51875 145.86528Q64.34688 145.70903 64.1125 145.6309Q63.89375 145.55278 63.6125 145.55278Q63.1125 145.55278 62.8 145.78716Q62.4875 146.02153 62.3 146.4434Q62.128124 146.84966 62.065624 147.39653Q62.003124 147.9434 62.003124 148.58403Q62.003124 149.42778 62.08125 150.02153Q62.175 150.61528 62.3625 150.99028Q62.565624 151.36528 62.8625 151.53716Q63.159374 151.70903 63.58125 151.70903Q63.909374 151.70903 64.14375 151.61528Q64.39375 151.5059 64.56563 151.3184Q64.75313 151.11528 64.8625 150.83403Q64.9875 150.55278 65.05 150.22466Q65.12813 149.89653 65.15938 149.5059Q65.19063 149.11528 65.19063 148.6934Z" fill-rule="nonzero"/><path fill="#000000" d="M53.9875 59.510418Q53.9875 59.635418 53.95625 59.713543Q53.940624 59.776043 53.909374 59.822918Q53.89375 59.869793 53.846874 59.901043Q53.815624 59.916668 53.76875 59.916668L49.815624 59.916668Q49.76875 59.916668 49.7375 59.901043Q49.70625 59.869793 49.659374 59.822918Q49.628124 59.776043 49.6125 59.713543Q49.596874 59.635418 49.596874 59.510418Q49.596874 59.416668 49.6125 59.338543Q49.628124 59.260418 49.659374 59.213543Q49.690624 59.166668 49.721874 59.135418Q49.76875 59.104168 49.815624 59.104168L51.39375 59.104168L51.39375 53.338543L49.925 54.213543Q49.815624 54.276043 49.7375 54.291668Q49.675 54.291668 49.628124 54.260418Q49.596874 54.213543 49.58125 54.135418Q49.565624 54.041668 49.565624 53.916668Q49.565624 53.807293 49.565624 53.744793Q49.58125 53.666668 49.596874 53.619793Q49.628124 53.572918 49.659374 53.541668Q49.690624 53.510418 49.7375 53.463543L51.4875 52.354168Q51.503124 52.338543 51.534374 52.322918Q51.58125 52.307293 51.628124 52.307293Q51.690624 52.291668 51.753124 52.291668Q51.83125 52.276043 51.925 52.276043Q52.065624 52.276043 52.159374 52.291668Q52.253124 52.307293 52.3 52.322918Q52.3625 52.338543 52.378124 52.385418Q52.39375 52.416668 52.39375 52.447918L52.39375 59.104168L53.76875 59.104168Q53.815624 59.104168 53.846874 59.135418Q53.89375 59.166668 53.925 59.213543Q53.95625 59.260418 53.971874 59.338543Q53.9875 59.416668 53.9875 59.510418ZM59.925 57.479168Q59.925 58.088543 59.721874 58.572918Q59.51875 59.041668 59.14375 59.369793Q58.76875 59.682293 58.253124 59.854168Q57.7375 60.026043 57.096874 60.026043Q56.753124 60.026043 56.425 59.979168Q56.1125 59.932293 55.8625 59.854168Q55.628124 59.776043 55.45625 59.713543Q55.3 59.635418 55.253124 59.604168Q55.221874 59.557293 55.20625 59.526043Q55.190624 59.494793 55.175 59.447918Q55.159374 59.385418 55.14375 59.307293Q55.14375 59.229168 55.14375 59.135418Q55.14375 59.026043 55.14375 58.947918Q55.159374 58.869793 55.175 58.822918Q55.20625 58.776043 55.2375 58.760418Q55.26875 58.729168 55.315624 58.729168Q55.378124 58.729168 55.4875 58.807293Q55.6125 58.869793 55.815624 58.963543Q56.034374 59.041668 56.33125 59.119793Q56.64375 59.197918 57.065624 59.197918Q57.45625 59.197918 57.784374 59.104168Q58.1125 59.010418 58.346874 58.807293Q58.596874 58.604168 58.721874 58.307293Q58.8625 58.010418 58.8625 57.572918Q58.8625 57.213543 58.7375 56.932293Q58.628124 56.651043 58.39375 56.463543Q58.159374 56.276043 57.8 56.197918Q57.440624 56.104168 56.925 56.104168Q56.565624 56.104168 56.3 56.135418Q56.05 56.166668 55.83125 56.166668Q55.675 56.166668 55.596874 56.104168Q55.534374 56.026043 55.534374 55.807293L55.534374 52.713543Q55.534374 52.526043 55.6125 52.432293Q55.70625 52.338543 55.878124 52.338543L59.2375 52.338543Q59.284374 52.338543 59.33125 52.369793Q59.378124 52.385418 59.39375 52.447918Q59.425 52.494793 59.440624 52.572918Q59.45625 52.651043 59.45625 52.760418Q59.45625 52.979168 59.39375 53.104168Q59.346874 53.213543 59.2375 53.213543L56.409374 53.213543L56.409374 55.338543Q56.6125 55.307293 56.815624 55.307293Q57.034374 55.291668 57.315624 55.291668Q57.971874 55.291668 58.45625 55.447918Q58.940624 55.604168 59.26875 55.901043Q59.596874 56.182293 59.753124 56.588543Q59.925 56.979168 59.925 57.479168ZM66.22188 56.104168Q66.22188 56.979168 66.08125 57.697918Q65.94063 58.416668 65.6125 58.947918Q65.3 59.463543 64.78438 59.744793Q64.26875 60.026043 63.51875 60.026043Q62.8 60.026043 62.3 59.776043Q61.815624 59.510418 61.51875 59.026043Q61.221874 58.526043 61.096874 57.807293Q60.971874 57.072918 60.971874 56.135418Q60.971874 55.276043 61.1125 54.557293Q61.253124 53.822918 61.565624 53.307293Q61.89375 52.791668 62.409374 52.510418Q62.925 52.229168 63.675 52.229168Q64.39375 52.229168 64.87813 52.479168Q65.3625 52.729168 65.65938 53.229168Q65.97188 53.729168 66.09688 54.447918Q66.22188 55.166668 66.22188 56.104168ZM65.19063 56.182293Q65.19063 55.604168 65.14375 55.166668Q65.09688 54.713543 65.01875 54.369793Q64.94063 54.010418 64.81563 53.760418Q64.69063 53.510418 64.51875 53.354168Q64.34688 53.197918 64.1125 53.119793Q63.89375 53.041668 63.6125 53.041668Q63.1125 53.041668 62.8 53.276043Q62.4875 53.510418 62.3 53.932293Q62.128124 54.338543 62.065624 54.885418Q62.003124 55.432293 62.003124 56.072918Q62.003124 56.916668 62.08125 57.510418Q62.175 58.104168 62.3625 58.479168Q62.565624 58.854168 62.8625 59.026043Q63.159374 59.197918 63.58125 59.197918Q63.909374 59.197918 64.14375 59.104168Q64.39375 58.994793 64.56563 58.807293Q64.75313 58.604168 64.8625 58.322918Q64.9875 58.041668 65.05 57.713543Q65.12813 57.385418 65.15938 56.994793Q65.19063 56.604168 65.19063 56.182293Z" fill-rule="nonzero"/><path fill="#000000" d="M113.96014 342.90314Q113.96014 343.0125 113.94451 343.10626Q113.94451 343.1844 113.91326 343.2469Q113.89764 343.29376 113.85076 343.325Q113.81951 343.34064 113.77264 343.34064Q113.71014 343.34064 113.53826 343.23126Q113.38201 343.1219 113.10076 342.98126Q112.83514 342.84064 112.44451 342.73126Q112.06951 342.6219 111.53826 342.6219Q110.91326 342.6219 110.41326 342.85626Q109.91326 343.075 109.56951 343.48126Q109.22576 343.8875 109.03826 344.45Q108.85076 344.9969 108.85076 345.65314Q108.85076 346.3719 109.05389 346.9344Q109.25701 347.4969 109.61639 347.8875Q109.97576 348.27814 110.46014 348.48126Q110.96014 348.66876 111.55389 348.66876Q111.89764 348.66876 112.25701 348.59064Q112.63201 348.5125 112.92889 348.34064L112.92889 346.1219L111.17889 346.1219Q111.08514 346.1219 111.02264 346.02814Q110.97576 345.9344 110.97576 345.71564Q110.97576 345.60626 110.99139 345.52814Q111.00701 345.45 111.02264 345.40314Q111.05389 345.34064 111.08514 345.325Q111.13201 345.29376 111.17889 345.29376L113.58514 345.29376Q113.64764 345.29376 113.71014 345.325Q113.77264 345.34064 113.81951 345.3875Q113.88201 345.4344 113.91326 345.52814Q113.94451 345.60626 113.94451 345.71564L113.94451 348.60626Q113.94451 348.7469 113.88201 348.8719Q113.83514 348.98126 113.66326 349.0594Q113.49139 349.1375 113.22576 349.2469Q112.96014 349.34064 112.66326 349.41876Q112.38201 349.48126 112.08514 349.5125Q111.80389 349.5594 111.50701 349.5594Q110.63201 349.5594 109.94451 349.29376Q109.25701 349.0125 108.77264 348.5125Q108.28826 347.9969 108.03826 347.29376Q107.78826 346.59064 107.78826 345.73126Q107.78826 344.825 108.05389 344.09064Q108.33514 343.35626 108.81951 342.84064Q109.31951 342.325 110.00701 342.04376Q110.71014 341.7625 111.55389 341.7625Q111.99139 341.7625 112.36639 341.84064Q112.75701 341.91876 113.05389 342.02814Q113.35076 342.1219 113.55389 342.2469Q113.75701 342.35626 113.81951 342.4344Q113.89764 342.5125 113.92889 342.6219Q113.96014 342.71564 113.96014 342.90314ZM119.24139 344.3719Q119.24139 344.4969 119.22576 344.59064Q119.22576 344.6844 119.21014 344.73126Q119.19451 344.77814 119.16326 344.8094Q119.13201 344.825 119.08514 344.825Q119.03826 344.825 118.97576 344.8094Q118.91326 344.77814 118.81951 344.7625Q118.74139 344.73126 118.63201 344.71564Q118.52264 344.6844 118.39764 344.6844Q118.25701 344.6844 118.11639 344.7469Q117.97576 344.79376 117.81951 344.9344Q117.66326 345.0594 117.49139 345.29376Q117.31951 345.5125 117.11639 345.84064L117.11639 349.3094Q117.11639 349.35626 117.08514 349.3875Q117.06951 349.41876 117.02264 349.45Q116.97576 349.46564 116.88201 349.46564Q116.78826 349.48126 116.63201 349.48126Q116.49139 349.48126 116.39764 349.46564Q116.30389 349.46564 116.24139 349.45Q116.19451 349.41876 116.16326 349.3875Q116.14764 349.35626 116.14764 349.3094L116.14764 344.02814Q116.14764 343.98126 116.16326 343.95Q116.19451 343.91876 116.24139 343.90314Q116.28826 343.8719 116.36639 343.85626Q116.46014 343.84064 116.60076 343.84064Q116.72576 343.84064 116.80389 343.85626Q116.89764 343.8719 116.94451 343.90314Q116.99139 343.91876 117.00701 343.95Q117.02264 343.98126 117.02264 344.02814L117.02264 344.79376Q117.24139 344.48126 117.42889 344.27814Q117.63201 344.075 117.78826 343.96564Q117.96014 343.85626 118.13201 343.8094Q118.30389 343.7625 118.47576 343.7625Q118.53826 343.7625 118.63201 343.77814Q118.74139 343.77814 118.83514 343.8094Q118.94451 343.825 119.02264 343.85626Q119.11639 343.8875 119.14764 343.91876Q119.19451 343.95 119.19451 343.98126Q119.21014 343.9969 119.21014 344.04376Q119.22576 344.075 119.22576 344.16876Q119.24139 344.2469 119.24139 344.3719ZM124.13201 349.3094Q124.13201 349.3719 124.08514 349.41876Q124.03826 349.45 123.94451 349.46564Q123.86639 349.48126 123.71014 349.48126Q123.55389 349.48126 123.46014 349.46564Q123.38201 349.45 123.33514 349.41876Q123.28826 349.3719 123.28826 349.3094L123.28826 348.77814Q122.94451 349.15314 122.52264 349.35626Q122.10076 349.5594 121.63201 349.5594Q121.21014 349.5594 120.86639 349.45Q120.53826 349.34064 120.28826 349.1375Q120.05389 348.9344 119.92889 348.6375Q119.80389 348.34064 119.80389 347.95Q119.80389 347.5125 119.97576 347.1844Q120.16326 346.85626 120.49139 346.6375Q120.83514 346.41876 121.31951 346.3094Q121.81951 346.2 122.44451 346.2L123.16326 346.2L123.16326 345.79376Q123.16326 345.48126 123.10076 345.2469Q123.03826 345.0125 122.89764 344.8719Q122.75701 344.71564 122.52264 344.6375Q122.28826 344.54376 121.96014 344.54376Q121.60076 344.54376 121.31951 344.6375Q121.03826 344.71564 120.81951 344.825Q120.60076 344.91876 120.46014 345.0125Q120.31951 345.09064 120.24139 345.09064Q120.19451 345.09064 120.16326 345.075Q120.13201 345.04376 120.10076 344.9969Q120.08514 344.95 120.06951 344.8875Q120.05389 344.8094 120.05389 344.71564Q120.05389 344.575 120.06951 344.4969Q120.10076 344.40314 120.17889 344.325Q120.25701 344.2469 120.44451 344.15314Q120.64764 344.04376 120.89764 343.96564Q121.14764 343.8719 121.44451 343.825Q121.74139 343.7625 122.05389 343.7625Q122.61639 343.7625 123.00701 343.90314Q123.41326 344.02814 123.64764 344.27814Q123.89764 344.52814 124.00701 344.90314Q124.13201 345.2625 124.13201 345.7469L124.13201 349.3094ZM123.16326 346.90314L122.33514 346.90314Q121.94451 346.90314 121.64764 346.96564Q121.35076 347.02814 121.16326 347.16876Q120.97576 347.29376 120.88201 347.48126Q120.78826 347.66876 120.78826 347.90314Q120.78826 348.325 121.03826 348.575Q121.30389 348.8094 121.77264 348.8094Q122.16326 348.8094 122.47576 348.6219Q122.80389 348.41876 123.16326 348.0125L123.16326 346.90314ZM131.6789 349.3094Q131.6789 349.35626 131.64764 349.3875Q131.63202 349.41876 131.56952 349.45Q131.52264 349.46564 131.4289 349.46564Q131.35077 349.48126 131.22577 349.48126Q131.10077 349.48126 131.00702 349.46564Q130.9289 349.46564 130.88202 349.45Q130.83514 349.41876 130.8039 349.3875Q130.78827 349.35626 130.78827 349.3094L130.78827 348.60626Q130.33514 349.10626 129.89764 349.34064Q129.46014 349.5594 129.00702 349.5594Q128.4914 349.5594 128.1164 349.3875Q127.75701 349.21564 127.53826 348.91876Q127.31951 348.60626 127.22576 348.21564Q127.13201 347.8094 127.13201 347.23126L127.13201 344.02814Q127.13201 343.98126 127.14764 343.95Q127.16326 343.91876 127.22576 343.90314Q127.28826 343.8719 127.38201 343.85626Q127.47576 343.84064 127.61639 343.84064Q127.75701 343.84064 127.85076 343.85626Q127.94451 343.8719 127.99139 343.90314Q128.0539 343.91876 128.06952 343.95Q128.10077 343.98126 128.10077 344.02814L128.10077 347.10626Q128.10077 347.5594 128.16327 347.84064Q128.22577 348.1219 128.3664 348.325Q128.50702 348.5125 128.71014 348.6219Q128.9289 348.73126 129.21014 348.73126Q129.56952 348.73126 129.9289 348.48126Q130.28827 348.21564 130.69452 347.71564L130.69452 344.02814Q130.69452 343.98126 130.71014 343.95Q130.7414 343.91876 130.78827 343.90314Q130.85077 343.8719 130.94452 343.85626Q131.03827 343.84064 131.1789 343.84064Q131.31952 343.84064 131.41327 343.85626Q131.50702 343.8719 131.5539 343.90314Q131.6164 343.91876 131.64764 343.95Q131.6789 343.98126 131.6789 344.02814L131.6789 349.3094ZM138.47577 344.0125Q138.47577 344.04376 138.47577 344.075Q138.47577 344.09064 138.46014 344.1219Q138.46014 344.15314 138.44452 344.1844Q138.44452 344.21564 138.4289 344.2625L136.63202 349.27814Q136.6164 349.34064 136.56952 349.3875Q136.53827 349.41876 136.46014 349.45Q136.38202 349.46564 136.25702 349.46564Q136.14764 349.48126 135.97577 349.48126Q135.78827 349.48126 135.66327 349.46564Q135.5539 349.46564 135.47577 349.45Q135.41327 349.41876 135.3664 349.3719Q135.33514 349.325 135.3039 349.27814L133.52264 344.2625Q133.4914 344.2 133.47577 344.15314Q133.46014 344.09064 133.46014 344.0594Q133.46014 344.02814 133.46014 344.0125Q133.46014 343.96564 133.47577 343.9344Q133.50702 343.90314 133.5539 343.8875Q133.6164 343.85626 133.71014 343.85626Q133.8039 343.84064 133.9289 343.84064Q134.10077 343.84064 134.19452 343.85626Q134.3039 343.8719 134.35077 343.90314Q134.41327 343.91876 134.44452 343.95Q134.47577 343.98126 134.4914 344.02814L135.97577 348.3875L136.00702 348.45L136.02264 348.3875L137.4914 344.02814Q137.50702 343.98126 137.53827 343.95Q137.56952 343.91876 137.6164 343.90314Q137.6789 343.8719 137.77264 343.85626Q137.8664 343.84064 138.02264 343.84064Q138.16327 343.84064 138.2414 343.85626Q138.33514 343.85626 138.38202 343.8875Q138.44452 343.90314 138.46014 343.9344Q138.47577 343.96564 138.47577 344.0125ZM143.13202 349.3094Q143.13202 349.3719 143.08514 349.41876Q143.03827 349.45 142.94452 349.46564Q142.8664 349.48126 142.71014 349.48126Q142.5539 349.48126 142.46014 349.46564Q142.38202 349.45 142.33514 349.41876Q142.28827 349.3719 142.28827 349.3094L142.28827 348.77814Q141.94452 349.15314 141.52264 349.35626Q141.10077 349.5594 140.63202 349.5594Q140.21014 349.5594 139.8664 349.45Q139.53827 349.34064 139.28827 349.1375Q139.0539 348.9344 138.9289 348.6375Q138.8039 348.34064 138.8039 347.95Q138.8039 347.5125 138.97577 347.1844Q139.16327 346.85626 139.4914 346.6375Q139.83514 346.41876 140.31952 346.3094Q140.81952 346.2 141.44452 346.2L142.16327 346.2L142.16327 345.79376Q142.16327 345.48126 142.10077 345.2469Q142.03827 345.0125 141.89764 344.8719Q141.75702 344.71564 141.52264 344.6375Q141.28827 344.54376 140.96014 344.54376Q140.60077 344.54376 140.31952 344.6375Q140.03827 344.71564 139.81952 344.825Q139.60077 344.91876 139.46014 345.0125Q139.31952 345.09064 139.2414 345.09064Q139.19452 345.09064 139.16327 345.075Q139.13202 345.04376 139.10077 344.9969Q139.08514 344.95 139.06952 344.8875Q139.0539 344.8094 139.0539 344.71564Q139.0539 344.575 139.06952 344.4969Q139.10077 344.40314 139.1789 344.325Q139.25702 344.2469 139.44452 344.15314Q139.64764 344.04376 139.89764 343.96564Q140.14764 343.8719 140.44452 343.825Q140.7414 343.7625 141.0539 343.7625Q141.6164 343.7625 142.00702 343.90314Q142.41327 344.02814 142.64764 344.27814Q142.89764 344.52814 143.00702 344.90314Q143.13202 345.2625 143.13202 345.7469L143.13202 349.3094ZM142.16327 346.90314L141.33514 346.90314Q140.94452 346.90314 140.64764 346.96564Q140.35077 347.02814 140.16327 347.16876Q139.97577 347.29376 139.88202 347.48126Q139.78827 347.66876 139.78827 347.90314Q139.78827 348.325 140.03827 348.575Q140.3039 348.8094 140.77264 348.8094Q141.16327 348.8094 141.47577 348.6219Q141.8039 348.41876 142.16327 348.0125L142.16327 346.90314ZM150.6789 351.40314Q150.6789 351.45 150.64764 351.48126Q150.6164 351.5125 150.5539 351.52814Q150.50702 351.5594 150.41327 351.575Q150.31952 351.59064 150.1789 351.59064Q150.03827 351.59064 149.94452 351.575Q149.85077 351.5594 149.78827 351.52814Q149.7414 351.5125 149.71014 351.48126Q149.69452 351.45 149.69452 351.40314L149.69452 348.7Q149.46014 348.9344 149.2414 349.10626Q149.02264 349.2625 148.8039 349.3719Q148.60077 349.48126 148.38202 349.5125Q148.1789 349.5594 147.94452 349.5594Q147.3664 349.5594 146.96014 349.34064Q146.56952 349.10626 146.3039 348.73126Q146.0539 348.34064 145.9289 347.825Q145.81952 347.3094 145.81952 346.73126Q145.81952 346.04376 145.96014 345.4969Q146.1164 344.95 146.39764 344.575Q146.69452 344.1844 147.1164 343.98126Q147.53827 343.7625 148.10077 343.7625Q148.33514 343.7625 148.53827 343.825Q148.7414 343.8719 148.94452 343.98126Q149.14764 344.075 149.35077 344.2625Q149.56952 344.4344 149.8039 344.66876L149.8039 344.02814Q149.8039 343.98126 149.81952 343.95Q149.85077 343.91876 149.89764 343.90314Q149.96014 343.8719 150.03827 343.85626Q150.13202 343.84064 150.25702 343.84064Q150.3664 343.84064 150.44452 343.85626Q150.53827 343.8719 150.58514 343.90314Q150.63202 343.91876 150.64764 343.95Q150.6789 343.98126 150.6789 344.02814L150.6789 351.40314ZM149.69452 345.59064Q149.3039 345.10626 148.9289 344.85626Q148.56952 344.59064 148.1789 344.59064Q147.8039 344.59064 147.53827 344.77814Q147.28827 344.95 147.13202 345.2469Q146.97577 345.52814 146.89764 345.8875Q146.81952 346.2469 146.81952 346.6219Q146.81952 347.02814 146.88202 347.41876Q146.94452 347.79376 147.10077 348.09064Q147.25702 348.3719 147.50702 348.5594Q147.75702 348.73126 148.13202 348.73126Q148.33514 348.73126 148.50702 348.6844Q148.6789 348.6219 148.8664 348.5125Q149.0539 348.3875 149.25702 348.2Q149.47577 347.9969 149.69452 347.7L149.69452 345.59064ZM157.6789 349.3094Q157.6789 349.35626 157.64764 349.3875Q157.63202 349.41876 157.56952 349.45Q157.52264 349.46564 157.4289 349.46564Q157.35077 349.48126 157.22577 349.48126Q157.10077 349.48126 157.00702 349.46564Q156.9289 349.46564 156.88202 349.45Q156.83514 349.41876 156.8039 349.3875Q156.78827 349.35626 156.78827 349.3094L156.78827 348.60626Q156.33514 349.10626 155.89764 349.34064Q155.46014 349.5594 155.00702 349.5594Q154.4914 349.5594 154.1164 349.3875Q153.75702 349.21564 153.53827 348.91876Q153.31952 348.60626 153.22577 348.21564Q153.13202 347.8094 153.13202 347.23126L153.13202 344.02814Q153.13202 343.98126 153.14764 343.95Q153.16327 343.91876 153.22577 343.90314Q153.28827 343.8719 153.38202 343.85626Q153.47577 343.84064 153.6164 343.84064Q153.75702 343.84064 153.85077 343.85626Q153.94452 343.8719 153.9914 343.90314Q154.0539 343.91876 154.06952 343.95Q154.10077 343.98126 154.10077 344.02814L154.10077 347.10626Q154.10077 347.5594 154.16327 347.84064Q154.22577 348.1219 154.3664 348.325Q154.50702 348.5125 154.71014 348.6219Q154.9289 348.73126 155.21014 348.73126Q155.56952 348.73126 155.9289 348.48126Q156.28827 348.21564 156.69452 347.71564L156.69452 344.02814Q156.69452 343.98126 156.71014 343.95Q156.7414 343.91876 156.78827 343.90314Q156.85077 343.8719 156.94452 343.85626Q157.03827 343.84064 157.1789 343.84064Q157.31952 343.84064 157.41327 343.85626Q157.50702 343.8719 157.5539 343.90314Q157.6164 343.91876 157.64764 343.95Q157.6789 343.98126 157.6789 344.02814L157.6789 349.3094ZM164.64764 346.4344Q164.64764 346.66876 164.53827 346.7625Q164.4289 346.85626 164.27264 346.85626L160.81952 346.85626Q160.81952 347.29376 160.89764 347.65314Q160.9914 347.9969 161.19452 348.2625Q161.41327 348.5125 161.7414 348.65314Q162.06952 348.77814 162.53827 348.77814Q162.91327 348.77814 163.21014 348.71564Q163.50702 348.65314 163.71014 348.575Q163.9289 348.4969 164.06952 348.4344Q164.21014 348.3719 164.27264 348.3719Q164.31952 348.3719 164.35077 348.40314Q164.38202 348.41876 164.39764 348.46564Q164.41327 348.4969 164.41327 348.575Q164.4289 348.65314 164.4289 348.7469Q164.4289 348.825 164.41327 348.8875Q164.41327 348.9344 164.39764 348.98126Q164.39764 349.02814 164.38202 349.0594Q164.3664 349.09064 164.33514 349.1375Q164.3039 349.16876 164.13202 349.2469Q163.97577 349.3094 163.72577 349.3875Q163.47577 349.45 163.14764 349.4969Q162.81952 349.5594 162.44452 349.5594Q161.78827 349.5594 161.28827 349.3875Q160.8039 349.2 160.47577 348.84064Q160.14764 348.48126 159.97577 347.95Q159.8039 347.40314 159.8039 346.6844Q159.8039 346.0125 159.97577 345.46564Q160.14764 344.91876 160.47577 344.54376Q160.81952 344.16876 161.28827 343.96564Q161.75702 343.7625 162.33514 343.7625Q162.96014 343.7625 163.39764 343.96564Q163.83514 344.16876 164.1164 344.5125Q164.39764 344.84064 164.52264 345.29376Q164.64764 345.7469 164.64764 346.2625L164.64764 346.4344ZM163.6789 346.15314Q163.69452 345.3875 163.33514 344.96564Q162.9914 344.52814 162.28827 344.52814Q161.9289 344.52814 161.66327 344.66876Q161.39764 344.79376 161.21014 345.0125Q161.03827 345.23126 160.9289 345.52814Q160.83514 345.825 160.81952 346.15314L163.6789 346.15314Z" fill-rule="nonzero"/><path fill="#000000" d="M224.23788 345.575Q224.23788 346.4969 224.01913 347.23126Q223.80038 347.96564 223.36288 348.48126Q222.94101 348.9969 222.28476 349.27814Q221.64413 349.5594 220.76913 349.5594Q219.92538 349.5594 219.30038 349.3094Q218.67538 349.04376 218.26913 348.5594Q217.86288 348.075 217.65976 347.35626Q217.45663 346.6375 217.45663 345.7Q217.45663 344.8094 217.67538 344.075Q217.89413 343.34064 218.31601 342.825Q218.75351 342.3094 219.40976 342.04376Q220.06601 341.7625 220.92538 341.7625Q221.76913 341.7625 222.37851 342.0125Q223.00351 342.2625 223.40976 342.7469Q223.83163 343.23126 224.03476 343.95Q224.23788 344.65314 224.23788 345.575ZM223.17538 345.6375Q223.17538 344.9969 223.06601 344.45Q222.95663 343.8875 222.67538 343.48126Q222.40976 343.075 221.95663 342.85626Q221.51913 342.6219 220.86288 342.6219Q220.20663 342.6219 219.75351 342.8719Q219.31601 343.10626 219.03476 343.52814Q218.76913 343.9344 218.64413 344.48126Q218.51913 345.02814 218.51913 345.6219Q218.51913 346.29376 218.62851 346.85626Q218.75351 347.41876 219.00351 347.825Q219.26913 348.23126 219.70663 348.46564Q220.15976 348.6844 220.83163 348.6844Q221.48788 348.6844 221.94101 348.45Q222.39413 348.2 222.65976 347.77814Q222.94101 347.35626 223.05038 346.8094Q223.17538 346.2625 223.17538 345.6375ZM230.30038 349.3094Q230.30038 349.35626 230.26913 349.3875Q230.25351 349.41876 230.19101 349.45Q230.14413 349.46564 230.05038 349.46564Q229.97226 349.48126 229.84726 349.48126Q229.72226 349.48126 229.62851 349.46564Q229.55038 349.46564 229.50351 349.45Q229.45663 349.41876 229.42538 349.3875Q229.40976 349.35626 229.40976 349.3094L229.40976 348.60626Q228.95663 349.10626 228.51913 349.34064Q228.08163 349.5594 227.62851 349.5594Q227.11288 349.5594 226.73788 349.3875Q226.37851 349.21564 226.15976 348.91876Q225.94101 348.60626 225.84726 348.21564Q225.75351 347.8094 225.75351 347.23126L225.75351 344.02814Q225.75351 343.98126 225.76913 343.95Q225.78476 343.91876 225.84726 343.90314Q225.90976 343.8719 226.00351 343.85626Q226.09726 343.84064 226.23788 343.84064Q226.37851 343.84064 226.47226 343.85626Q226.56601 343.8719 226.61288 343.90314Q226.67538 343.91876 226.69101 343.95Q226.72226 343.98126 226.72226 344.02814L226.72226 347.10626Q226.72226 347.5594 226.78476 347.84064Q226.84726 348.1219 226.98788 348.325Q227.12851 348.5125 227.33163 348.6219Q227.55038 348.73126 227.83163 348.73126Q228.19101 348.73126 228.55038 348.48126Q228.90976 348.21564 229.31601 347.71564L229.31601 344.02814Q229.31601 343.98126 229.33163 343.95Q229.36288 343.91876 229.40976 343.90314Q229.47226 343.8719 229.56601 343.85626Q229.65976 343.84064 229.80038 343.84064Q229.94101 343.84064 230.03476 343.85626Q230.12851 343.8719 230.17538 343.90314Q230.23788 343.91876 230.26913 343.95Q230.30038 343.98126 230.30038 344.02814L230.30038 349.3094ZM235.51913 348.91876Q235.51913 349.09064 235.48788 349.1844Q235.47226 349.27814 235.42538 349.325Q235.37851 349.3719 235.28476 349.41876Q235.19101 349.46564 235.06601 349.48126Q234.95663 349.5125 234.81601 349.52814Q234.67538 349.54376 234.55038 349.54376Q234.12851 349.54376 233.83163 349.4344Q233.55038 349.325 233.36288 349.10626Q233.17538 348.8875 233.08163 348.5594Q233.00351 348.21564 233.00351 347.7625L233.00351 344.6844L232.26913 344.6844Q232.17538 344.6844 232.11288 344.59064Q232.06601 344.4969 232.06601 344.27814Q232.06601 344.16876 232.08163 344.09064Q232.09726 344.0125 232.11288 343.96564Q232.14413 343.91876 232.17538 343.90314Q232.22226 343.8719 232.26913 343.8719L233.00351 343.8719L233.00351 342.6219Q233.00351 342.575 233.01913 342.54376Q233.05038 342.5125 233.09726 342.4969Q233.15976 342.46564 233.25351 342.45Q233.34726 342.4344 233.48788 342.4344Q233.62851 342.4344 233.72226 342.45Q233.81601 342.46564 233.86288 342.4969Q233.92538 342.5125 233.94101 342.54376Q233.97226 342.575 233.97226 342.6219L233.97226 343.8719L235.33163 343.8719Q235.37851 343.8719 235.40976 343.90314Q235.44101 343.91876 235.45663 343.96564Q235.48788 344.0125 235.50351 344.09064Q235.51913 344.16876 235.51913 344.27814Q235.51913 344.4969 235.45663 344.59064Q235.40976 344.6844 235.33163 344.6844L233.97226 344.6844L233.97226 347.6219Q233.97226 348.16876 234.12851 348.45Q234.30038 348.71564 234.70663 348.71564Q234.84726 348.71564 234.94101 348.7Q235.05038 348.66876 235.12851 348.6375Q235.22226 348.60626 235.26913 348.59064Q235.33163 348.5594 235.37851 348.5594Q235.40976 348.5594 235.44101 348.575Q235.47226 348.59064 235.47226 348.6375Q235.48788 348.66876 235.50351 348.7469Q235.51913 348.8094 235.51913 348.91876ZM239.86288 344.3719Q239.86288 344.4969 239.84726 344.59064Q239.84726 344.6844 239.83163 344.73126Q239.81601 344.77814 239.78476 344.8094Q239.75351 344.825 239.70663 344.825Q239.65976 344.825 239.59726 344.8094Q239.53476 344.77814 239.44101 344.7625Q239.36288 344.73126 239.25351 344.71564Q239.14413 344.6844 239.01913 344.6844Q238.87851 344.6844 238.73788 344.7469Q238.59726 344.79376 238.44101 344.9344Q238.28476 345.0594 238.11288 345.29376Q237.94101 345.5125 237.73788 345.84064L237.73788 349.3094Q237.73788 349.35626 237.70663 349.3875Q237.69101 349.41876 237.64413 349.45Q237.59726 349.46564 237.50351 349.46564Q237.40976 349.48126 237.25351 349.48126Q237.11288 349.48126 237.01913 349.46564Q236.92538 349.46564 236.86288 349.45Q236.81601 349.41876 236.78476 349.3875Q236.76913 349.35626 236.76913 349.3094L236.76913 344.02814Q236.76913 343.98126 236.78476 343.95Q236.81601 343.91876 236.86288 343.90314Q236.90976 343.8719 236.98788 343.85626Q237.08163 343.84064 237.22226 343.84064Q237.34726 343.84064 237.42538 343.85626Q237.51913 343.8719 237.56601 343.90314Q237.61288 343.91876 237.62851 343.95Q237.64413 343.98126 237.64413 344.02814L237.64413 344.79376Q237.86288 344.48126 238.05038 344.27814Q238.25351 344.075 238.40976 343.96564Q238.58163 343.85626 238.75351 343.8094Q238.92538 343.7625 239.09726 343.7625Q239.15976 343.7625 239.25351 343.77814Q239.36288 343.77814 239.45663 343.8094Q239.56601 343.825 239.64413 343.85626Q239.73788 343.8875 239.76913 343.91876Q239.81601 343.95 239.81601 343.98126Q239.83163 343.9969 239.83163 344.04376Q239.84726 344.075 239.84726 344.16876Q239.86288 344.2469 239.86288 344.3719ZM244.75351 349.3094Q244.75351 349.3719 244.70663 349.41876Q244.65976 349.45 244.56601 349.46564Q244.48788 349.48126 244.33163 349.48126Q244.17538 349.48126 244.08163 349.46564Q244.00351 349.45 243.95663 349.41876Q243.90976 349.3719 243.90976 349.3094L243.90976 348.77814Q243.56601 349.15314 243.14413 349.35626Q242.72226 349.5594 242.25351 349.5594Q241.83163 349.5594 241.48788 349.45Q241.15976 349.34064 240.90976 349.1375Q240.67538 348.9344 240.55038 348.6375Q240.42538 348.34064 240.42538 347.95Q240.42538 347.5125 240.59726 347.1844Q240.78476 346.85626 241.11288 346.6375Q241.45663 346.41876 241.94101 346.3094Q242.44101 346.2 243.06601 346.2L243.78476 346.2L243.78476 345.79376Q243.78476 345.48126 243.72226 345.2469Q243.65976 345.0125 243.51913 344.8719Q243.37851 344.71564 243.14413 344.6375Q242.90976 344.54376 242.58163 344.54376Q242.22226 344.54376 241.94101 344.6375Q241.65976 344.71564 241.44101 344.825Q241.22226 344.91876 241.08163 345.0125Q240.94101 345.09064 240.86288 345.09064Q240.81601 345.09064 240.78476 345.075Q240.75351 345.04376 240.72226 344.9969Q240.70663 344.95 240.69101 344.8875Q240.67538 344.8094 240.67538 344.71564Q240.67538 344.575 240.69101 344.4969Q240.72226 344.40314 240.80038 344.325Q240.87851 344.2469 241.06601 344.15314Q241.26913 344.04376 241.51913 343.96564Q241.76913 343.8719 242.06601 343.825Q242.36288 343.7625 242.67538 343.7625Q243.23788 343.7625 243.62851 343.90314Q244.03476 344.02814 244.26913 344.27814Q244.51913 344.52814 244.62851 344.90314Q244.75351 345.2625 244.75351 345.7469L244.75351 349.3094ZM243.78476 346.90314L242.95663 346.90314Q242.56601 346.90314 242.26913 346.96564Q241.97226 347.02814 241.78476 347.16876Q241.59726 347.29376 241.50351 347.48126Q241.40976 347.66876 241.40976 347.90314Q241.40976 348.325 241.65976 348.575Q241.92538 348.8094 242.39413 348.8094Q242.78476 348.8094 243.09726 348.6219Q243.42538 348.41876 243.78476 348.0125L243.78476 346.90314Z" fill-rule="nonzero"/><path fill="#000000" d="M314.29688 350.1219Q314.29688 350.2469 314.28125 350.34064Q314.26562 350.4344 314.23438 350.48126Q314.20312 350.52814 314.17188 350.54376Q314.14062 350.575 314.09375 350.575Q313.98438 350.575 313.71875 350.46564Q313.45312 350.3719 313.10938 350.1844Q312.78125 350.0125 312.39062 349.7469Q312.0 349.48126 311.64062 349.1219Q311.35938 349.3094 310.92188 349.4344Q310.48438 349.5594 309.89062 349.5594Q309.04688 349.5594 308.42188 349.3094Q307.79688 349.0594 307.39062 348.575Q306.98438 348.09064 306.78125 347.3719Q306.57812 346.6375 306.57812 345.7Q306.57812 344.79376 306.79688 344.075Q307.01562 343.34064 307.4375 342.825Q307.875 342.3094 308.53125 342.04376Q309.1875 341.7625 310.04688 341.7625Q310.85938 341.7625 311.46875 342.0125Q312.09375 342.2625 312.51562 342.7469Q312.9375 343.23126 313.14062 343.9344Q313.35938 344.6375 313.35938 345.5594Q313.35938 346.04376 313.29688 346.48126Q313.25 346.90314 313.125 347.29376Q313.01562 347.6844 312.82812 348.0125Q312.64062 348.34064 312.40625 348.60626Q312.82812 348.95 313.14062 349.15314Q313.46875 349.34064 313.67188 349.45Q313.89062 349.54376 314.0 349.59064Q314.125 349.6375 314.1875 349.6844Q314.25 349.7469 314.26562 349.84064Q314.29688 349.95 314.29688 350.1219ZM312.29688 345.6375Q312.29688 344.9969 312.1875 344.45Q312.07812 343.8875 311.79688 343.48126Q311.53125 343.075 311.07812 342.85626Q310.64062 342.6219 309.98438 342.6219Q309.32812 342.6219 308.875 342.8719Q308.4375 343.10626 308.15625 343.52814Q307.89062 343.9344 307.76562 344.48126Q307.64062 345.0125 307.64062 345.6219Q307.64062 346.29376 307.75 346.85626Q307.875 347.41876 308.125 347.825Q308.39062 348.23126 308.82812 348.46564Q309.28125 348.6844 309.95312 348.6844Q310.60938 348.6844 311.0625 348.45Q311.51562 348.2 311.78125 347.77814Q312.0625 347.35626 312.17188 346.8094Q312.29688 346.2469 312.29688 345.6375ZM319.42188 349.3094Q319.42188 349.35626 319.39062 349.3875Q319.375 349.41876 319.3125 349.45Q319.26562 349.46564 319.17188 349.46564Q319.09375 349.48126 318.96875 349.48126Q318.84375 349.48126 318.75 349.46564Q318.67188 349.46564 318.625 349.45Q318.57812 349.41876 318.54688 349.3875Q318.53125 349.35626 318.53125 349.3094L318.53125 348.60626Q318.07812 349.10626 317.64062 349.34064Q317.20312 349.5594 316.75 349.5594Q316.23438 349.5594 315.85938 349.3875Q315.5 349.21564 315.28125 348.91876Q315.0625 348.60626 314.96875 348.21564Q314.875 347.8094 314.875 347.23126L314.875 344.02814Q314.875 343.98126 314.89062 343.95Q314.90625 343.91876 314.96875 343.90314Q315.03125 343.8719 315.125 343.85626Q315.21875 343.84064 315.35938 343.84064Q315.5 343.84064 315.59375 343.85626Q315.6875 343.8719 315.73438 343.90314Q315.79688 343.91876 315.8125 343.95Q315.84375 343.98126 315.84375 344.02814L315.84375 347.10626Q315.84375 347.5594 315.90625 347.84064Q315.96875 348.1219 316.10938 348.325Q316.25 348.5125 316.45312 348.6219Q316.67188 348.73126 316.95312 348.73126Q317.3125 348.73126 317.67188 348.48126Q318.03125 348.21564 318.4375 347.71564L318.4375 344.02814Q318.4375 343.98126 318.45312 343.95Q318.48438 343.91876 318.53125 343.90314Q318.59375 343.8719 318.6875 343.85626Q318.78125 343.84064 318.92188 343.84064Q319.0625 343.84064 319.15625 343.85626Q319.25 343.8719 319.29688 343.90314Q319.35938 343.91876 319.39062 343.95Q319.42188 343.98126 319.42188 344.02814L319.42188 349.3094ZM325.875 349.3094Q325.875 349.3719 325.82812 349.41876Q325.78125 349.45 325.6875 349.46564Q325.60938 349.48126 325.45312 349.48126Q325.29688 349.48126 325.20312 349.46564Q325.125 349.45 325.07812 349.41876Q325.03125 349.3719 325.03125 349.3094L325.03125 348.77814Q324.6875 349.15314 324.26562 349.35626Q323.84375 349.5594 323.375 349.5594Q322.95312 349.5594 322.60938 349.45Q322.28125 349.34064 322.03125 349.1375Q321.79688 348.9344 321.67188 348.6375Q321.54688 348.34064 321.54688 347.95Q321.54688 347.5125 321.71875 347.1844Q321.90625 346.85626 322.23438 346.6375Q322.57812 346.41876 323.0625 346.3094Q323.5625 346.2 324.1875 346.2L324.90625 346.2L324.90625 345.79376Q324.90625 345.48126 324.84375 345.2469Q324.78125 345.0125 324.64062 344.8719Q324.5 344.71564 324.26562 344.6375Q324.03125 344.54376 323.70312 344.54376Q323.34375 344.54376 323.0625 344.6375Q322.78125 344.71564 322.5625 344.825Q322.34375 344.91876 322.20312 345.0125Q322.0625 345.09064 321.98438 345.09064Q321.9375 345.09064 321.90625 345.075Q321.875 345.04376 321.84375 344.9969Q321.82812 344.95 321.8125 344.8875Q321.79688 344.8094 321.79688 344.71564Q321.79688 344.575 321.8125 344.4969Q321.84375 344.40314 321.92188 344.325Q322.0 344.2469 322.1875 344.15314Q322.39062 344.04376 322.64062 343.96564Q322.89062 343.8719 323.1875 343.825Q323.48438 343.7625 323.79688 343.7625Q324.35938 343.7625 324.75 343.90314Q325.15625 344.02814 325.39062 344.27814Q325.64062 344.52814 325.75 344.90314Q325.875 345.2625 325.875 345.7469L325.875 349.3094ZM324.90625 346.90314L324.07812 346.90314Q323.6875 346.90314 323.39062 346.96564Q323.09375 347.02814 322.90625 347.16876Q322.71875 347.29376 322.625 347.48126Q322.53125 347.66876 322.53125 347.90314Q322.53125 348.325 322.78125 348.575Q323.04688 348.8094 323.51562 348.8094Q323.90625 348.8094 324.21875 348.6219Q324.54688 348.41876 324.90625 348.0125L324.90625 346.90314ZM331.98438 344.3719Q331.98438 344.4969 331.96875 344.59064Q331.96875 344.6844 331.95312 344.73126Q331.9375 344.77814 331.90625 344.8094Q331.875 344.825 331.82812 344.825Q331.78125 344.825 331.71875 344.8094Q331.65625 344.77814 331.5625 344.7625Q331.48438 344.73126 331.375 344.71564Q331.26562 344.6844 331.14062 344.6844Q331.0 344.6844 330.85938 344.7469Q330.71875 344.79376 330.5625 344.9344Q330.40625 345.0594 330.23438 345.29376Q330.0625 345.5125 329.85938 345.84064L329.85938 349.3094Q329.85938 349.35626 329.82812 349.3875Q329.8125 349.41876 329.76562 349.45Q329.71875 349.46564 329.625 349.46564Q329.53125 349.48126 329.375 349.48126Q329.23438 349.48126 329.14062 349.46564Q329.04688 349.46564 328.98438 349.45Q328.9375 349.41876 328.90625 349.3875Q328.89062 349.35626 328.89062 349.3094L328.89062 344.02814Q328.89062 343.98126 328.90625 343.95Q328.9375 343.91876 328.98438 343.90314Q329.03125 343.8719 329.10938 343.85626Q329.20312 343.84064 329.34375 343.84064Q329.46875 343.84064 329.54688 343.85626Q329.64062 343.8719 329.6875 343.90314Q329.73438 343.91876 329.75 343.95Q329.76562 343.98126 329.76562 344.02814L329.76562 344.79376Q329.98438 344.48126 330.17188 344.27814Q330.375 344.075 330.53125 343.96564Q330.70312 343.85626 330.875 343.8094Q331.04688 343.7625 331.21875 343.7625Q331.28125 343.7625 331.375 343.77814Q331.48438 343.77814 331.57812 343.8094Q331.6875 343.825 331.76562 343.85626Q331.85938 343.8875 331.89062 343.91876Q331.9375 343.95 331.9375 343.98126Q331.95312 343.9969 331.95312 344.04376Q331.96875 344.075 331.96875 344.16876Q331.98438 344.2469 331.98438 344.3719ZM335.64062 348.91876Q335.64062 349.09064 335.60938 349.1844Q335.59375 349.27814 335.54688 349.325Q335.5 349.3719 335.40625 349.41876Q335.3125 349.46564 335.1875 349.48126Q335.07812 349.5125 334.9375 349.52814Q334.79688 349.54376 334.67188 349.54376Q334.25 349.54376 333.95312 349.4344Q333.67188 349.325 333.48438 349.10626Q333.29688 348.8875 333.20312 348.5594Q333.125 348.21564 333.125 347.7625L333.125 344.6844L332.39062 344.6844Q332.29688 344.6844 332.23438 344.59064Q332.1875 344.4969 332.1875 344.27814Q332.1875 344.16876 332.20312 344.09064Q332.21875 344.0125 332.23438 343.96564Q332.26562 343.91876 332.29688 343.90314Q332.34375 343.8719 332.39062 343.8719L333.125 343.8719L333.125 342.6219Q333.125 342.575 333.14062 342.54376Q333.17188 342.5125 333.21875 342.4969Q333.28125 342.46564 333.375 342.45Q333.46875 342.4344 333.60938 342.4344Q333.75 342.4344 333.84375 342.45Q333.9375 342.46564 333.98438 342.4969Q334.04688 342.5125 334.0625 342.54376Q334.09375 342.575 334.09375 342.6219L334.09375 343.8719L335.45312 343.8719Q335.5 343.8719 335.53125 343.90314Q335.5625 343.91876 335.57812 343.96564Q335.60938 344.0125 335.625 344.09064Q335.64062 344.16876 335.64062 344.27814Q335.64062 344.4969 335.57812 344.59064Q335.53125 344.6844 335.45312 344.6844L334.09375 344.6844L334.09375 347.6219Q334.09375 348.16876 334.25 348.45Q334.42188 348.71564 334.82812 348.71564Q334.96875 348.71564 335.0625 348.7Q335.17188 348.66876 335.25 348.6375Q335.34375 348.60626 335.39062 348.59064Q335.45312 348.5594 335.5 348.5594Q335.53125 348.5594 335.5625 348.575Q335.59375 348.59064 335.59375 348.6375Q335.60938 348.66876 335.625 348.7469Q335.64062 348.8094 335.64062 348.91876ZM340.26562 349.04376Q340.26562 349.15314 340.23438 349.23126Q340.21875 349.3094 340.1875 349.35626Q340.17188 349.40314 340.125 349.4344Q340.09375 349.45 340.04688 349.45L336.79688 349.45Q336.6875 349.45 336.59375 349.3719Q336.51562 349.27814 336.51562 349.09064L336.51562 348.8875Q336.51562 348.8094 336.53125 348.7469Q336.54688 348.6844 336.5625 348.6219Q336.59375 348.5594 336.625 348.48126Q336.67188 348.40314 336.73438 348.3094L339.0625 344.6844L336.79688 344.6844Q336.70312 344.6844 336.64062 344.59064Q336.59375 344.4969 336.59375 344.27814Q336.59375 344.16876 336.60938 344.09064Q336.625 344.0125 336.64062 343.96564Q336.67188 343.91876 336.70312 343.90314Q336.75 343.8719 336.79688 343.8719L339.82812 343.8719Q339.89062 343.8719 339.9375 343.90314Q339.98438 343.91876 340.01562 343.96564Q340.0625 343.9969 340.07812 344.0594Q340.10938 344.1219 340.10938 344.21564L340.10938 344.40314Q340.10938 344.4969 340.09375 344.575Q340.07812 344.6375 340.04688 344.7Q340.03125 344.7625 339.98438 344.84064Q339.95312 344.91876 339.89062 345.0125L337.57812 348.6375L340.04688 348.6375Q340.09375 348.6375 340.125 348.65314Q340.17188 348.66876 340.1875 348.71564Q340.21875 348.7625 340.23438 348.85626Q340.26562 348.9344 340.26562 349.04376ZM346.79688 346.60626Q346.79688 347.2469 346.625 347.79376Q346.46875 348.34064 346.125 348.73126Q345.78125 349.1219 345.28125 349.34064Q344.78125 349.5594 344.10938 349.5594Q343.45312 349.5594 342.96875 349.3719Q342.48438 349.16876 342.15625 348.8094Q341.84375 348.4344 341.6875 347.91876Q341.53125 347.3875 341.53125 346.71564Q341.53125 346.075 341.6875 345.52814Q341.85938 344.98126 342.1875 344.59064Q342.53125 344.2 343.03125 343.98126Q343.54688 343.7625 344.21875 343.7625Q344.875 343.7625 345.34375 343.96564Q345.82812 344.15314 346.15625 344.52814Q346.48438 344.8875 346.64062 345.41876Q346.79688 345.95 346.79688 346.60626ZM345.78125 346.66876Q345.78125 346.2469 345.70312 345.8719Q345.625 345.48126 345.4375 345.2Q345.26562 344.90314 344.95312 344.7469Q344.64062 344.575 344.17188 344.575Q343.75 344.575 343.4375 344.73126Q343.14062 344.8719 342.9375 345.15314Q342.73438 345.4344 342.64062 345.825Q342.54688 346.2 342.54688 346.65314Q342.54688 347.075 342.625 347.46564Q342.70312 347.84064 342.875 348.1375Q343.0625 348.41876 343.375 348.59064Q343.6875 348.7469 344.15625 348.7469Q344.57812 348.7469 344.89062 348.59064Q345.20312 348.4344 345.39062 348.16876Q345.59375 347.8875 345.6875 347.5125Q345.78125 347.1219 345.78125 346.66876Z" fill-rule="nonzero"/><path fill="#000000" d="M414.69962 347.325Q414.69962 347.85626 414.4965 348.27814Q414.309 348.6844 413.94962 348.98126Q413.60587 349.2625 413.13712 349.41876Q412.66837 349.5594 412.1215 349.5594Q411.7465 349.5594 411.41837 349.4969Q411.09024 349.4344 410.84024 349.34064Q410.59024 349.2469 410.40274 349.15314Q410.23087 349.04376 410.16837 348.98126Q410.10587 348.90314 410.07462 348.79376Q410.04337 348.6844 410.04337 348.5125Q410.04337 348.3719 410.04337 348.29376Q410.059 348.2 410.07462 348.15314Q410.10587 348.10626 410.13712 348.09064Q410.184 348.0594 410.23087 348.0594Q410.309 348.0594 410.44962 348.16876Q410.60587 348.2625 410.84024 348.3875Q411.07462 348.4969 411.40274 348.60626Q411.73087 348.7 412.16837 348.7Q412.4965 348.7 412.76212 348.6219Q413.04337 348.52814 413.23087 348.3719Q413.434 348.2 413.54337 347.96564Q413.65274 347.73126 413.65274 347.4344Q413.65274 347.10626 413.4965 346.8875Q413.35587 346.65314 413.10587 346.48126Q412.8715 346.3094 412.559 346.16876Q412.26212 346.02814 411.934 345.8719Q411.6215 345.71564 411.309 345.54376Q411.01212 345.35626 410.76212 345.1219Q410.52774 344.8719 410.3715 344.54376Q410.23087 344.2 410.23087 343.7469Q410.23087 343.2625 410.40274 342.90314Q410.57462 342.52814 410.8715 342.27814Q411.184 342.0125 411.60587 341.8875Q412.04337 341.7625 412.52774 341.7625Q412.77774 341.7625 413.02774 341.8094Q413.29337 341.84064 413.51212 341.91876Q413.7465 341.9969 413.91837 342.09064Q414.09024 342.16876 414.13712 342.23126Q414.19962 342.27814 414.21524 342.3094Q414.2465 342.34064 414.2465 342.40314Q414.26212 342.45 414.26212 342.52814Q414.27774 342.59064 414.27774 342.7Q414.27774 342.8094 414.26212 342.8875Q414.26212 342.96564 414.23087 343.02814Q414.21524 343.075 414.184 343.10626Q414.15274 343.1375 414.1215 343.1375Q414.059 343.1375 413.91837 343.0594Q413.77774 342.96564 413.57462 342.8719Q413.3715 342.7625 413.10587 342.6844Q412.84024 342.59064 412.4965 342.59064Q412.184 342.59064 411.94962 342.6844Q411.71524 342.7625 411.559 342.90314Q411.40274 343.04376 411.32462 343.2469Q411.2465 343.4344 411.2465 343.65314Q411.2465 343.96564 411.38712 344.2Q411.54337 344.41876 411.77774 344.60626Q412.02774 344.77814 412.34024 344.91876Q412.65274 345.0594 412.96524 345.21564Q413.29337 345.3719 413.60587 345.54376Q413.91837 345.71564 414.15274 345.96564Q414.40274 346.21564 414.54337 346.54376Q414.69962 346.8719 414.69962 347.325ZM417.48087 349.3094Q417.48087 349.35626 417.44962 349.3875Q417.434 349.41876 417.38712 349.45Q417.34024 349.46564 417.2465 349.46564Q417.15274 349.48126 416.9965 349.48126Q416.85587 349.48126 416.76212 349.46564Q416.66837 349.46564 416.60587 349.45Q416.559 349.41876 416.52774 349.3875Q416.51212 349.35626 416.51212 349.3094L416.51212 344.02814Q416.51212 343.98126 416.52774 343.95Q416.559 343.91876 416.60587 343.90314Q416.66837 343.8719 416.76212 343.85626Q416.85587 343.84064 416.9965 343.84064Q417.15274 343.84064 417.2465 343.85626Q417.34024 343.8719 417.38712 343.90314Q417.434 343.91876 417.44962 343.95Q417.48087 343.98126 417.48087 344.02814L417.48087 349.3094ZM417.38712 341.45Q417.434 341.3875 417.48087 341.35626Q417.52774 341.3094 417.59024 341.29376Q417.65274 341.2625 417.7465 341.2469Q417.85587 341.23126 417.9965 341.23126Q418.15274 341.23126 418.26212 341.2625Q418.3715 341.27814 418.40274 341.325Q418.44962 341.35626 418.434 341.40314Q418.434 341.45 418.38712 341.4969L417.32462 342.8719Q417.27774 342.9344 417.23087 342.96564Q417.19962 342.9969 417.15274 343.02814Q417.10587 343.04376 417.02774 343.0594Q416.94962 343.0594 416.82462 343.0594Q416.69962 343.0594 416.6215 343.04376Q416.54337 343.02814 416.51212 342.9969Q416.48087 342.96564 416.48087 342.91876Q416.4965 342.8719 416.54337 342.8094L417.38712 341.45ZM415.71524 343.8719L415.71524 343.8719ZM420.48087 349.3094Q420.48087 349.35626 420.44962 349.3875Q420.434 349.41876 420.38712 349.45Q420.34024 349.46564 420.2465 349.46564Q420.15274 349.48126 419.9965 349.48126Q419.85587 349.48126 419.76212 349.46564Q419.66837 349.46564 419.60587 349.45Q419.559 349.41876 419.52774 349.3875Q419.51212 349.35626 419.51212 349.3094L419.51212 341.48126Q419.51212 341.4344 419.52774 341.40314Q419.559 341.35626 419.60587 341.34064Q419.66837 341.3094 419.76212 341.3094Q419.85587 341.29376 419.9965 341.29376Q420.15274 341.29376 420.2465 341.3094Q420.34024 341.3094 420.38712 341.34064Q420.434 341.35626 420.44962 341.40314Q420.48087 341.4344 420.48087 341.48126L420.48087 349.3094ZM428.01212 346.4344Q428.01212 346.66876 427.90274 346.7625Q427.79337 346.85626 427.63712 346.85626L424.184 346.85626Q424.184 347.29376 424.26212 347.65314Q424.35587 347.9969 424.559 348.2625Q424.77774 348.5125 425.10587 348.65314Q425.434 348.77814 425.90274 348.77814Q426.27774 348.77814 426.57462 348.71564Q426.8715 348.65314 427.07462 348.575Q427.29337 348.4969 427.434 348.4344Q427.57462 348.3719 427.63712 348.3719Q427.684 348.3719 427.71524 348.40314Q427.7465 348.41876 427.76212 348.46564Q427.77774 348.4969 427.77774 348.575Q427.79337 348.65314 427.79337 348.7469Q427.79337 348.825 427.77774 348.8875Q427.77774 348.9344 427.76212 348.98126Q427.76212 349.02814 427.7465 349.0594Q427.73087 349.09064 427.69962 349.1375Q427.66837 349.16876 427.4965 349.2469Q427.34024 349.3094 427.09024 349.3875Q426.84024 349.45 426.51212 349.4969Q426.184 349.5594 425.809 349.5594Q425.15274 349.5594 424.65274 349.3875Q424.16837 349.2 423.84024 348.84064Q423.51212 348.48126 423.34024 347.95Q423.16837 347.40314 423.16837 346.6844Q423.16837 346.0125 423.34024 345.46564Q423.51212 344.91876 423.84024 344.54376Q424.184 344.16876 424.65274 343.96564Q425.1215 343.7625 425.69962 343.7625Q426.32462 343.7625 426.76212 343.96564Q427.19962 344.16876 427.48087 344.5125Q427.76212 344.84064 427.88712 345.29376Q428.01212 345.7469 428.01212 346.2625L428.01212 346.4344ZM427.04337 346.15314Q427.059 345.3875 426.69962 344.96564Q426.35587 344.52814 425.65274 344.52814Q425.29337 344.52814 425.02774 344.66876Q424.76212 344.79376 424.57462 345.0125Q424.40274 345.23126 424.29337 345.52814Q424.19962 345.825 424.184 346.15314L427.04337 346.15314ZM434.51212 349.1844Q434.559 349.27814 434.559 349.34064Q434.559 349.3875 434.4965 349.41876Q434.44962 349.45 434.32462 349.46564Q434.21524 349.48126 434.04337 349.48126Q433.8715 349.48126 433.76212 349.46564Q433.65274 349.46564 433.59024 349.45Q433.54337 349.41876 433.4965 349.3875Q433.46524 349.35626 433.44962 349.325L432.184 347.23126L430.91837 349.325Q430.90274 349.35626 430.8715 349.3875Q430.84024 349.41876 430.77774 349.45Q430.71524 349.46564 430.60587 349.46564Q430.51212 349.48126 430.35587 349.48126Q430.184 349.48126 430.07462 349.46564Q429.96524 349.45 429.90274 349.41876Q429.85587 349.3875 429.85587 349.34064Q429.8715 349.27814 429.91837 349.1844L431.559 346.6219L430.01212 344.1375Q429.96524 344.0594 429.94962 344.0125Q429.94962 343.95 430.01212 343.91876Q430.07462 343.8719 430.184 343.85626Q430.29337 343.84064 430.48087 343.84064Q430.65274 343.84064 430.7465 343.85626Q430.85587 343.8719 430.91837 343.8875Q430.98087 343.90314 430.9965 343.9344Q431.02774 343.96564 431.059 343.9969L432.26212 345.96564L433.48087 343.9969Q433.4965 343.96564 433.52774 343.9344Q433.559 343.90314 433.60587 343.8875Q433.65274 343.8719 433.7465 343.85626Q433.84024 343.84064 433.9965 343.84064Q434.16837 343.84064 434.27774 343.85626Q434.38712 343.8719 434.434 343.90314Q434.4965 343.9344 434.48087 343.9969Q434.48087 344.0594 434.434 344.1375L432.88712 346.59064L434.51212 349.1844Z" fill-rule="nonzero"/><path fill="#000000" d="M509.58673 349.09064Q509.64923 349.21564 509.66486 349.29376Q509.68048 349.3719 509.6336 349.41876Q509.58673 349.45 509.46173 349.46564Q509.33673 349.48126 509.1336 349.48126Q508.9461 349.48126 508.83673 349.46564Q508.74298 349.46564 508.68048 349.45Q508.61798 349.41876 508.58673 349.3875Q508.55548 349.35626 508.52423 349.3094L506.83673 346.27814L505.1336 349.3094Q505.10236 349.35626 505.0711 349.3875Q505.03986 349.41876 504.97736 349.45Q504.91486 349.46564 504.80548 349.46564Q504.71173 349.48126 504.52423 349.48126Q504.33673 349.48126 504.22736 349.46564Q504.11798 349.45 504.0711 349.41876Q504.02423 349.3719 504.03986 349.29376Q504.05548 349.21564 504.1336 349.09064L506.1961 345.60626L504.22736 342.23126Q504.14923 342.10626 504.1336 342.02814Q504.11798 341.95 504.16486 341.90314Q504.21173 341.85626 504.3211 341.84064Q504.4461 341.825 504.64923 341.825Q504.8211 341.825 504.93048 341.84064Q505.03986 341.85626 505.10236 341.8719Q505.18048 341.8875 505.1961 341.9344Q505.22736 341.96564 505.27423 342.0125L506.89923 344.85626L508.5086 342.0125Q508.53986 341.96564 508.5711 341.9344Q508.60236 341.8875 508.64923 341.8719Q508.71173 341.85626 508.80548 341.84064Q508.91486 341.825 509.08673 341.825Q509.2586 341.825 509.36798 341.84064Q509.49298 341.85626 509.53986 341.90314Q509.58673 341.95 509.5711 342.02814Q509.5711 342.10626 509.49298 342.23126L507.52423 345.575L509.58673 349.09064ZM511.60236 349.3094Q511.60236 349.35626 511.5711 349.3875Q511.55548 349.41876 511.5086 349.45Q511.46173 349.46564 511.36798 349.46564Q511.27423 349.48126 511.11798 349.48126Q510.97736 349.48126 510.8836 349.46564Q510.78986 349.46564 510.72736 349.45Q510.68048 349.41876 510.64923 349.3875Q510.6336 349.35626 510.6336 349.3094L510.6336 344.02814Q510.6336 343.98126 510.64923 343.95Q510.68048 343.91876 510.72736 343.90314Q510.78986 343.8719 510.8836 343.85626Q510.97736 343.84064 511.11798 343.84064Q511.27423 343.84064 511.36798 343.85626Q511.46173 343.8719 511.5086 343.90314Q511.55548 343.91876 511.5711 343.95Q511.60236 343.98126 511.60236 344.02814L511.60236 349.3094ZM511.71173 342.2469Q511.71173 342.59064 511.58673 342.71564Q511.46173 342.84064 511.11798 342.84064Q510.77423 342.84064 510.64923 342.71564Q510.52423 342.59064 510.52423 342.2625Q510.52423 341.91876 510.64923 341.79376Q510.77423 341.66876 511.1336 341.66876Q511.46173 341.66876 511.58673 341.79376Q511.71173 341.91876 511.71173 342.2469ZM517.9461 347.8719Q517.9461 348.27814 517.78986 348.59064Q517.64923 348.90314 517.368 349.1219Q517.10236 349.34064 516.71173 349.45Q516.33673 349.5594 515.8836 349.5594Q515.60236 349.5594 515.33673 349.5125Q515.08673 349.48126 514.8836 349.41876Q514.6805 349.34064 514.53986 349.2625Q514.39923 349.1844 514.33673 349.1375Q514.27423 349.075 514.243 348.96564Q514.21173 348.85626 514.21173 348.6844Q514.21173 348.575 514.22736 348.4969Q514.243 348.41876 514.2586 348.3719Q514.27423 348.325 514.3055 348.3094Q514.33673 348.27814 514.3836 348.27814Q514.4461 348.27814 514.5711 348.35626Q514.6961 348.4344 514.8836 348.52814Q515.0711 348.6219 515.3211 348.71564Q515.5711 348.79376 515.89923 348.79376Q516.14923 348.79376 516.33673 348.7469Q516.53986 348.6844 516.6805 348.59064Q516.83673 348.48126 516.91486 348.325Q516.993 348.15314 516.993 347.95Q516.993 347.71564 516.8836 347.575Q516.77423 347.41876 516.58673 347.3094Q516.39923 347.1844 516.16486 347.09064Q515.9305 346.9969 515.6805 346.90314Q515.4305 346.79376 515.1805 346.66876Q514.9461 346.54376 514.7586 346.3719Q514.5711 346.1844 514.46173 345.9344Q514.35236 345.6844 514.35236 345.325Q514.35236 345.0125 514.46173 344.73126Q514.58673 344.45 514.8211 344.2469Q515.0711 344.02814 515.4305 343.90314Q515.78986 343.7625 516.27423 343.7625Q516.47736 343.7625 516.6805 343.8094Q516.89923 343.84064 517.0711 343.8875Q517.243 343.9344 517.35236 343.9969Q517.47736 344.0594 517.53986 344.10626Q517.60236 344.15314 517.618 344.2Q517.64923 344.23126 517.64923 344.27814Q517.66486 344.3094 517.66486 344.3875Q517.6805 344.45 517.6805 344.54376Q517.6805 344.6375 517.66486 344.71564Q517.66486 344.77814 517.6336 344.825Q517.618 344.8719 517.58673 344.90314Q517.5711 344.91876 517.52423 344.91876Q517.47736 344.91876 517.368 344.85626Q517.27423 344.79376 517.118 344.71564Q516.96173 344.6375 516.743 344.575Q516.53986 344.5125 516.2586 344.5125Q516.0086 344.5125 515.8211 344.575Q515.6336 344.6219 515.5086 344.73126Q515.39923 344.825 515.33673 344.96564Q515.27423 345.10626 515.27423 345.27814Q515.27423 345.5125 515.3836 345.66876Q515.5086 345.8094 515.6961 345.9344Q515.8836 346.04376 516.118 346.1375Q516.368 346.23126 516.618 346.34064Q516.868 346.4344 517.10236 346.5594Q517.35236 346.6844 517.53986 346.85626Q517.72736 347.02814 517.83673 347.27814Q517.9461 347.52814 517.9461 347.8719ZM523.3836 348.91876Q523.3836 349.09064 523.35236 349.1844Q523.33673 349.27814 523.28986 349.325Q523.243 349.3719 523.14923 349.41876Q523.0555 349.46564 522.9305 349.48126Q522.8211 349.5125 522.6805 349.52814Q522.53986 349.54376 522.41486 349.54376Q521.993 349.54376 521.6961 349.4344Q521.41486 349.325 521.22736 349.10626Q521.03986 348.8875 520.9461 348.5594Q520.868 348.21564 520.868 347.7625L520.868 344.6844L520.1336 344.6844Q520.03986 344.6844 519.97736 344.59064Q519.9305 344.4969 519.9305 344.27814Q519.9305 344.16876 519.9461 344.09064Q519.96173 344.0125 519.97736 343.96564Q520.0086 343.91876 520.03986 343.90314Q520.08673 343.8719 520.1336 343.8719L520.868 343.8719L520.868 342.6219Q520.868 342.575 520.8836 342.54376Q520.91486 342.5125 520.96173 342.4969Q521.02423 342.46564 521.118 342.45Q521.21173 342.4344 521.35236 342.4344Q521.493 342.4344 521.58673 342.45Q521.6805 342.46564 521.72736 342.4969Q521.78986 342.5125 521.8055 342.54376Q521.83673 342.575 521.83673 342.6219L521.83673 343.8719L523.1961 343.8719Q523.243 343.8719 523.27423 343.90314Q523.3055 343.91876 523.3211 343.96564Q523.35236 344.0125 523.368 344.09064Q523.3836 344.16876 523.3836 344.27814Q523.3836 344.4969 523.3211 344.59064Q523.27423 344.6844 523.1961 344.6844L521.83673 344.6844L521.83673 347.6219Q521.83673 348.16876 521.993 348.45Q522.16486 348.71564 522.5711 348.71564Q522.71173 348.71564 522.8055 348.7Q522.91486 348.66876 522.993 348.6375Q523.08673 348.60626 523.1336 348.59064Q523.1961 348.5594 523.243 348.5594Q523.27423 348.5594 523.3055 348.575Q523.33673 348.59064 523.33673 348.6375Q523.35236 348.66876 523.368 348.7469Q523.3836 348.8094 523.3836 348.91876ZM529.53986 346.60626Q529.53986 347.2469 529.368 347.79376Q529.21173 348.34064 528.868 348.73126Q528.52423 349.1219 528.02423 349.34064Q527.52423 349.5594 526.85236 349.5594Q526.1961 349.5594 525.71173 349.3719Q525.22736 349.16876 524.89923 348.8094Q524.58673 348.4344 524.4305 347.91876Q524.27423 347.3875 524.27423 346.71564Q524.27423 346.075 524.4305 345.52814Q524.60236 344.98126 524.9305 344.59064Q525.27423 344.2 525.77423 343.98126Q526.28986 343.7625 526.96173 343.7625Q527.618 343.7625 528.08673 343.96564Q528.5711 344.15314 528.89923 344.52814Q529.22736 344.8875 529.3836 345.41876Q529.53986 345.95 529.53986 346.60626ZM528.52423 346.66876Q528.52423 346.2469 528.4461 345.8719Q528.368 345.48126 528.1805 345.2Q528.0086 344.90314 527.6961 344.7469Q527.3836 344.575 526.91486 344.575Q526.493 344.575 526.1805 344.73126Q525.8836 344.8719 525.6805 345.15314Q525.47736 345.4344 525.3836 345.825Q525.28986 346.2 525.28986 346.65314Q525.28986 347.075 525.368 347.46564Q525.4461 347.84064 525.618 348.1375Q525.8055 348.41876 526.118 348.59064Q526.4305 348.7469 526.89923 348.7469Q527.3211 348.7469 527.6336 348.59064Q527.9461 348.4344 528.1336 348.16876Q528.33673 347.8875 528.4305 347.5125Q528.52423 347.1219 528.52423 346.66876Z" fill-rule="nonzero"/><path fill="#757575" d="M33.971874 33.3Q33.971874 33.378124 33.925 33.440624Q33.89375 33.4875 33.784374 33.534374Q33.690624 33.565624 33.534374 33.58125Q33.39375 33.6125 33.14375 33.6125Q32.925 33.6125 32.753124 33.58125Q32.596874 33.565624 32.503124 33.534374Q32.425 33.4875 32.378124 33.440624Q32.346874 33.378124 32.346874 33.3L32.346874 22.284374L32.315624 22.284374L27.815624 33.346874Q27.784374 33.409374 27.721874 33.45625Q27.675 33.503124 27.565624 33.55Q27.471874 33.58125 27.33125 33.596874Q27.190624 33.6125 27.003124 33.6125Q26.8 33.6125 26.64375 33.58125Q26.503124 33.565624 26.39375 33.534374Q26.3 33.503124 26.2375 33.45625Q26.190624 33.409374 26.175 33.346874L21.878124 22.284374L21.8625 22.284374L21.8625 33.3Q21.8625 33.378124 21.815624 33.440624Q21.784374 33.4875 21.675 33.534374Q21.58125 33.565624 21.425 33.58125Q21.26875 33.6125 21.034374 33.6125Q20.8 33.6125 20.64375 33.58125Q20.4875 33.565624 20.39375 33.534374Q20.3 33.4875 20.26875 33.440624Q20.2375 33.378124 20.2375 33.3L20.2375 21.675Q20.2375 21.26875 20.440624 21.096874Q20.659374 20.909374 20.925 20.909374L21.940624 20.909374Q22.253124 20.909374 22.4875 20.971874Q22.721874 21.034374 22.89375 21.159374Q23.065624 21.284374 23.175 21.4875Q23.3 21.675 23.39375 21.940624L27.05 31.08125L27.1125 31.08125L30.909374 21.971874Q31.01875 21.675 31.14375 21.471874Q31.26875 21.26875 31.425 21.14375Q31.58125 21.01875 31.76875 20.971874Q31.95625 20.909374 32.190624 20.909374L33.253124 20.909374Q33.409374 20.909374 33.534374 20.95625Q33.675 21.003124 33.753124 21.096874Q33.846874 21.190624 33.909374 21.33125Q33.971874 21.471874 33.971874 21.675L33.971874 33.3ZM43.659374 33.315624Q43.659374 33.425 43.58125 33.4875Q43.503124 33.55 43.3625 33.58125Q43.2375 33.6125 42.971874 33.6125Q42.721874 33.6125 42.565624 33.58125Q42.409374 33.55 42.346874 33.4875Q42.284374 33.425 42.284374 33.315624L42.284374 32.440624Q41.70625 33.05 40.9875 33.39375Q40.284374 33.7375 39.503124 33.7375Q38.8 33.7375 38.2375 33.55Q37.675 33.378124 37.284374 33.034374Q36.89375 32.690624 36.675 32.190624Q36.45625 31.690624 36.45625 31.065624Q36.45625 30.315624 36.753124 29.76875Q37.05 29.221874 37.6125 28.8625Q38.190624 28.503124 39.003124 28.33125Q39.83125 28.14375 40.846874 28.14375L42.065624 28.14375L42.065624 27.45625Q42.065624 26.940624 41.95625 26.55Q41.846874 26.159374 41.6125 25.909374Q41.378124 25.64375 40.9875 25.51875Q40.6125 25.378124 40.05 25.378124Q39.45625 25.378124 38.971874 25.534374Q38.503124 25.675 38.14375 25.846874Q37.8 26.003124 37.55 26.159374Q37.315624 26.3 37.20625 26.3Q37.128124 26.3 37.065624 26.26875Q37.003124 26.221874 36.95625 26.14375Q36.925 26.065624 36.89375 25.940624Q36.878124 25.815624 36.878124 25.675Q36.878124 25.425 36.909374 25.284374Q36.940624 25.14375 37.065624 25.01875Q37.20625 24.89375 37.534374 24.721874Q37.8625 24.55 38.26875 24.409374Q38.690624 24.26875 39.190624 24.175Q39.690624 24.08125 40.20625 24.08125Q41.14375 24.08125 41.8 24.3Q42.471874 24.503124 42.878124 24.925Q43.3 25.33125 43.471874 25.95625Q43.659374 26.565624 43.659374 27.39375L43.659374 33.315624ZM42.065624 29.3L40.690624 29.3Q40.01875 29.3 39.534374 29.409374Q39.05 29.51875 38.721874 29.753124Q38.409374 29.971874 38.253124 30.284374Q38.096874 30.58125 38.096874 30.9875Q38.096874 31.659374 38.534374 32.065624Q38.971874 32.471874 39.753124 32.471874Q40.378124 32.471874 40.925 32.159374Q41.471874 31.83125 42.065624 31.159374L42.065624 29.3ZM51.6125 32.659374Q51.6125 32.940624 51.565624 33.1125Q51.534374 33.26875 51.45625 33.346874Q51.378124 33.425 51.221874 33.503124Q51.065624 33.565624 50.8625 33.6125Q50.675 33.659374 50.440624 33.690624Q50.221874 33.721874 49.9875 33.721874Q49.315624 33.721874 48.815624 33.534374Q48.33125 33.346874 48.01875 32.9875Q47.70625 32.628124 47.565624 32.065624Q47.425 31.503124 47.425 30.7375L47.425 25.596874L46.190624 25.596874Q46.05 25.596874 45.95625 25.440624Q45.878124 25.284374 45.878124 24.940624Q45.878124 24.753124 45.89375 24.628124Q45.925 24.503124 45.95625 24.425Q46.003124 24.33125 46.065624 24.3Q46.128124 24.26875 46.20625 24.26875L47.425 24.26875L47.425 22.175Q47.425 22.096874 47.45625 22.05Q47.4875 21.9875 47.58125 21.940624Q47.675 21.89375 47.83125 21.878124Q47.9875 21.8625 48.221874 21.8625Q48.471874 21.8625 48.628124 21.878124Q48.784374 21.89375 48.8625 21.940624Q48.95625 21.9875 48.9875 22.05Q49.034374 22.096874 49.034374 22.175L49.034374 24.26875L51.3 24.26875Q51.378124 24.26875 51.425 24.3Q51.4875 24.33125 51.534374 24.425Q51.58125 24.503124 51.596874 24.628124Q51.6125 24.753124 51.6125 24.940624Q51.6125 25.284374 51.51875 25.440624Q51.440624 25.596874 51.3 25.596874L49.034374 25.596874L49.034374 30.503124Q49.034374 31.409374 49.3 31.878124Q49.58125 32.33125 50.26875 32.33125Q50.4875 32.33125 50.659374 32.3Q50.846874 32.253124 50.971874 32.20625Q51.1125 32.159374 51.20625 32.1125Q51.315624 32.065624 51.39375 32.065624Q51.440624 32.065624 51.4875 32.096874Q51.534374 32.1125 51.55 32.190624Q51.58125 32.253124 51.596874 32.378124Q51.6125 32.4875 51.6125 32.659374ZM61.55 28.534374Q61.55 28.909374 61.346874 29.08125Q61.159374 29.2375 60.925 29.2375L55.159374 29.2375Q55.159374 29.971874 55.3 30.565624Q55.45625 31.14375 55.784374 31.565624Q56.128124 31.971874 56.675 32.20625Q57.221874 32.425 58.01875 32.425Q58.64375 32.425 59.128124 32.33125Q59.628124 32.221874 59.971874 32.096874Q60.33125 31.971874 60.565624 31.878124Q60.8 31.76875 60.909374 31.76875Q60.971874 31.76875 61.01875 31.8Q61.08125 31.83125 61.1125 31.909374Q61.14375 31.971874 61.159374 32.096874Q61.175 32.20625 61.175 32.39375Q61.175 32.51875 61.159374 32.6125Q61.159374 32.70625 61.14375 32.784374Q61.128124 32.846874 61.08125 32.909374Q61.05 32.95625 61.003124 33.01875Q60.95625 33.065624 60.690624 33.190624Q60.425 33.315624 60.003124 33.440624Q59.58125 33.55 59.01875 33.64375Q58.471874 33.7375 57.846874 33.7375Q56.76875 33.7375 55.95625 33.440624Q55.14375 33.128124 54.58125 32.534374Q54.01875 31.940624 53.7375 31.05Q53.45625 30.14375 53.45625 28.95625Q53.45625 27.815624 53.753124 26.909374Q54.05 26.003124 54.596874 25.378124Q55.14375 24.753124 55.925 24.425Q56.70625 24.08125 57.675 24.08125Q58.70625 24.08125 59.440624 24.409374Q60.175 24.7375 60.64375 25.3Q61.1125 25.8625 61.33125 26.628124Q61.55 27.378124 61.55 28.2375L61.55 28.534374ZM59.925 28.05Q59.95625 26.784374 59.3625 26.065624Q58.76875 25.33125 57.6125 25.33125Q57.01875 25.33125 56.565624 25.565624Q56.1125 25.784374 55.8 26.159374Q55.503124 26.534374 55.33125 27.034374Q55.175 27.51875 55.159374 28.05L59.925 28.05ZM58.346874 20.221874Q58.409374 20.1125 58.4875 20.05Q58.565624 19.971874 58.675 19.940624Q58.784374 19.89375 58.940624 19.878124Q59.1125 19.8625 59.346874 19.8625Q59.628124 19.8625 59.8 19.89375Q59.971874 19.925 60.034374 19.9875Q60.096874 20.05 60.08125 20.14375Q60.08125 20.221874 60.003124 20.3L58.2375 22.58125Q58.159374 22.675 58.096874 22.7375Q58.034374 22.8 57.940624 22.83125Q57.8625 22.8625 57.721874 22.878124Q57.596874 22.89375 57.409374 22.89375Q57.190624 22.89375 57.065624 22.8625Q56.940624 22.83125 56.878124 22.784374Q56.83125 22.7375 56.846874 22.659374Q56.8625 22.58125 56.925 22.471874L58.346874 20.221874ZM55.55 24.26875L55.55 24.26875ZM69.175 25.096874Q69.175 25.3 69.15938 25.45625Q69.15938 25.596874 69.12813 25.690624Q69.09688 25.76875 69.05 25.815624Q69.01875 25.846874 68.94063 25.846874Q68.8625 25.846874 68.7375 25.815624Q68.62813 25.76875 68.4875 25.721874Q68.34688 25.675 68.175 25.64375Q68.00313 25.596874 67.8 25.596874Q67.55 25.596874 67.31563 25.70625Q67.08125 25.8 66.81563 26.01875Q66.56563 26.2375 66.28438 26.6125Q66.00313 26.9875 65.65938 27.51875L65.65938 33.3Q65.65938 33.378124 65.6125 33.440624Q65.58125 33.4875 65.4875 33.534374Q65.40938 33.565624 65.25313 33.58125Q65.09688 33.6125 64.84688 33.6125Q64.6125 33.6125 64.45625 33.58125Q64.3 33.565624 64.20625 33.534374Q64.1125 33.4875 64.08125 33.440624Q64.05 33.378124 64.05 33.3L64.05 24.51875Q64.05 24.440624 64.06563 24.39375Q64.09688 24.33125 64.19063 24.284374Q64.28438 24.2375 64.40938 24.221874Q64.55 24.20625 64.78438 24.20625Q64.9875 24.20625 65.12813 24.221874Q65.26875 24.2375 65.34688 24.284374Q65.425 24.33125 65.45625 24.39375Q65.50313 24.440624 65.50313 24.51875L65.50313 25.8Q65.8625 25.26875 66.175 24.940624Q66.50313 24.596874 66.78438 24.409374Q67.06563 24.221874 67.33125 24.159374Q67.6125 24.08125 67.90938 24.08125Q68.03438 24.08125 68.19063 24.096874Q68.34688 24.1125 68.51875 24.159374Q68.70625 24.190624 68.84688 24.2375Q68.9875 24.284374 69.03438 24.33125Q69.09688 24.378124 69.1125 24.425Q69.14375 24.471874 69.15938 24.534374Q69.175 24.596874 69.175 24.7375Q69.175 24.8625 69.175 25.096874ZM72.65938 33.3Q72.65938 33.378124 72.6125 33.440624Q72.58125 33.4875 72.4875 33.534374Q72.40938 33.565624 72.25313 33.58125Q72.09688 33.6125 71.84688 33.6125Q71.6125 33.6125 71.45625 33.58125Q71.3 33.565624 71.20625 33.534374Q71.1125 33.4875 71.08125 33.440624Q71.05 33.378124 71.05 33.3L71.05 24.51875Q71.05 24.440624 71.08125 24.39375Q71.1125 24.33125 71.20625 24.3Q71.3 24.253124 71.45625 24.2375Q71.6125 24.20625 71.84688 24.20625Q72.09688 24.20625 72.25313 24.2375Q72.40938 24.253124 72.4875 24.3Q72.58125 24.33125 72.6125 24.39375Q72.65938 24.440624 72.65938 24.51875L72.65938 33.3ZM72.84688 21.55Q72.84688 22.1125 72.62813 22.315624Q72.40938 22.51875 71.83125 22.51875Q71.26875 22.51875 71.05 22.33125Q70.84688 22.128124 70.84688 21.565624Q70.84688 21.003124 71.06563 20.8Q71.28438 20.596874 71.8625 20.596874Q72.425 20.596874 72.62813 20.8Q72.84688 20.9875 72.84688 21.55ZM82.65938 33.315624Q82.65938 33.425 82.58125 33.4875Q82.50313 33.55 82.3625 33.58125Q82.2375 33.6125 81.97188 33.6125Q81.72188 33.6125 81.56563 33.58125Q81.40938 33.55 81.34688 33.4875Q81.28438 33.425 81.28438 33.315624L81.28438 32.440624Q80.70625 33.05 79.9875 33.39375Q79.28438 33.7375 78.50313 33.7375Q77.8 33.7375 77.2375 33.55Q76.675 33.378124 76.28438 33.034374Q75.89375 32.690624 75.675 32.190624Q75.45625 31.690624 75.45625 31.065624Q75.45625 30.315624 75.75313 29.76875Q76.05 29.221874 76.6125 28.8625Q77.19063 28.503124 78.00313 28.33125Q78.83125 28.14375 79.84688 28.14375L81.06563 28.14375L81.06563 27.45625Q81.06563 26.940624 80.95625 26.55Q80.84688 26.159374 80.6125 25.909374Q80.37813 25.64375 79.9875 25.51875Q79.6125 25.378124 79.05 25.378124Q78.45625 25.378124 77.97188 25.534374Q77.50313 25.675 77.14375 25.846874Q76.8 26.003124 76.55 26.159374Q76.31563 26.3 76.20625 26.3Q76.12813 26.3 76.06563 26.26875Q76.00313 26.221874 75.95625 26.14375Q75.925 26.065624 75.89375 25.940624Q75.87813 25.815624 75.87813 25.675Q75.87813 25.425 75.90938 25.284374Q75.94063 25.14375 76.06563 25.01875Q76.20625 24.89375 76.53438 24.721874Q76.8625 24.55 77.26875 24.409374Q77.69063 24.26875 78.19063 24.175Q78.69063 24.08125 79.20625 24.08125Q80.14375 24.08125 80.8 24.3Q81.47188 24.503124 81.87813 24.925Q82.3 25.33125 82.47188 25.95625Q82.65938 26.565624 82.65938 27.39375L82.65938 33.315624ZM81.06563 29.3L79.69063 29.3Q79.01875 29.3 78.53438 29.409374Q78.05 29.51875 77.72188 29.753124Q77.40938 29.971874 77.25313 30.284374Q77.09688 30.58125 77.09688 30.9875Q77.09688 31.659374 77.53438 32.065624Q77.97188 32.471874 78.75313 32.471874Q79.37813 32.471874 79.925 32.159374Q80.47188 31.83125 81.06563 31.159374L81.06563 29.3ZM98.9875 24.6125Q98.9875 25.565624 98.675 26.33125Q98.3625 27.08125 97.78438 27.628124Q97.20625 28.159374 96.3625 28.45625Q95.51875 28.7375 94.34688 28.7375L92.90938 28.7375L92.90938 33.3Q92.90938 33.378124 92.8625 33.440624Q92.81563 33.4875 92.72188 33.534374Q92.64375 33.565624 92.47188 33.58125Q92.31563 33.6125 92.06563 33.6125Q91.83125 33.6125 91.65938 33.58125Q91.50313 33.565624 91.40938 33.534374Q91.31563 33.4875 91.26875 33.440624Q91.2375 33.378124 91.2375 33.3L91.2375 21.628124Q91.2375 21.2375 91.44063 21.08125Q91.64375 20.909374 91.89375 20.909374L94.59688 20.909374Q95.00313 20.909374 95.37813 20.95625Q95.76875 20.9875 96.26875 21.096874Q96.78438 21.20625 97.31563 21.51875Q97.84688 21.815624 98.22188 22.26875Q98.59688 22.721874 98.78438 23.315624Q98.9875 23.89375 98.9875 24.6125ZM97.22188 24.753124Q97.22188 23.971874 96.925 23.45625Q96.64375 22.940624 96.22188 22.690624Q95.8 22.440624 95.34688 22.378124Q94.89375 22.3 94.45625 22.3L92.90938 22.3L92.90938 27.3625L94.425 27.3625Q95.19063 27.3625 95.69063 27.175Q96.19063 26.971874 96.53438 26.628124Q96.87813 26.284374 97.05 25.8Q97.22188 25.315624 97.22188 24.753124ZM106.175 25.096874Q106.175 25.3 106.15938 25.45625Q106.15938 25.596874 106.12813 25.690624Q106.09688 25.76875 106.05 25.815624Q106.01875 25.846874 105.94063 25.846874Q105.8625 25.846874 105.7375 25.815624Q105.62813 25.76875 105.4875 25.721874Q105.34688 25.675 105.175 25.64375Q105.00313 25.596874 104.8 25.596874Q104.55 25.596874 104.31563 25.70625Q104.08125 25.8 103.81563 26.01875Q103.56563 26.2375 103.28438 26.6125Q103.00313 26.9875 102.65938 27.51875L102.65938 33.3Q102.65938 33.378124 102.6125 33.440624Q102.58125 33.4875 102.4875 33.534374Q102.40938 33.565624 102.25313 33.58125Q102.09688 33.6125 101.84688 33.6125Q101.6125 33.6125 101.45625 33.58125Q101.3 33.565624 101.20625 33.534374Q101.1125 33.4875 101.08125 33.440624Q101.05 33.378124 101.05 33.3L101.05 24.51875Q101.05 24.440624 101.06563 24.39375Q101.09688 24.33125 101.19063 24.284374Q101.28438 24.2375 101.40938 24.221874Q101.55 24.20625 101.78438 24.20625Q101.9875 24.20625 102.12813 24.221874Q102.26875 24.2375 102.34688 24.284374Q102.425 24.33125 102.45625 24.39375Q102.50313 24.440624 102.50313 24.51875L102.50313 25.8Q102.8625 25.26875 103.175 24.940624Q103.50313 24.596874 103.78438 24.409374Q104.06563 24.221874 104.33125 24.159374Q104.6125 24.08125 104.90938 24.08125Q105.03438 24.08125 105.19063 24.096874Q105.34688 24.1125 105.51875 24.159374Q105.70625 24.190624 105.84688 24.2375Q105.9875 24.284374 106.03438 24.33125Q106.09688 24.378124 106.1125 24.425Q106.14375 24.471874 106.15938 24.534374Q106.175 24.596874 106.175 24.7375Q106.175 24.8625 106.175 25.096874ZM109.65938 33.3Q109.65938 33.378124 109.6125 33.440624Q109.58125 33.4875 109.4875 33.534374Q109.40938 33.565624 109.25313 33.58125Q109.09688 33.6125 108.84688 33.6125Q108.6125 33.6125 108.45625 33.58125Q108.3 33.565624 108.20625 33.534374Q108.1125 33.4875 108.08125 33.440624Q108.05 33.378124 108.05 33.3L108.05 24.51875Q108.05 24.440624 108.08125 24.39375Q108.1125 24.33125 108.20625 24.3Q108.3 24.253124 108.45625 24.2375Q108.6125 24.20625 108.84688 24.20625Q109.09688 24.20625 109.25313 24.2375Q109.40938 24.253124 109.4875 24.3Q109.58125 24.33125 109.6125 24.39375Q109.65938 24.440624 109.65938 24.51875L109.65938 33.3ZM109.84688 21.55Q109.84688 22.1125 109.62813 22.315624Q109.40938 22.51875 108.83125 22.51875Q108.26875 22.51875 108.05 22.33125Q107.84688 22.128124 107.84688 21.565624Q107.84688 21.003124 108.06563 20.8Q108.28438 20.596874 108.8625 20.596874Q109.425 20.596874 109.62813 20.8Q109.84688 20.9875 109.84688 21.55ZM126.08125 33.3Q126.08125 33.378124 126.03438 33.440624Q126.00313 33.4875 125.90938 33.534374Q125.83125 33.565624 125.675 33.58125Q125.51875 33.6125 125.28438 33.6125Q125.03438 33.6125 124.87813 33.58125Q124.72188 33.565624 124.62813 33.534374Q124.53438 33.4875 124.4875 33.440624Q124.45625 33.378124 124.45625 33.3L124.45625 27.95625Q124.45625 27.409374 124.3625 26.95625Q124.26875 26.4875 124.05 26.159374Q123.83125 25.83125 123.50313 25.659374Q123.175 25.471874 122.72188 25.471874Q122.15938 25.471874 121.59688 25.909374Q121.05 26.33125 120.3625 27.159374L120.3625 33.3Q120.3625 33.378124 120.31563 33.440624Q120.28438 33.4875 120.19063 33.534374Q120.1125 33.565624 119.95625 33.58125Q119.8 33.6125 119.56563 33.6125Q119.33125 33.6125 119.175 33.58125Q119.01875 33.565624 118.925 33.534374Q118.83125 33.4875 118.78438 33.440624Q118.75313 33.378124 118.75313 33.3L118.75313 27.95625Q118.75313 27.409374 118.64375 26.95625Q118.55 26.4875 118.33125 26.159374Q118.1125 25.83125 117.78438 25.659374Q117.45625 25.471874 117.00313 25.471874Q116.45625 25.471874 115.87813 25.909374Q115.31563 26.33125 114.65938 27.159374L114.65938 33.3Q114.65938 33.378124 114.6125 33.440624Q114.58125 33.4875 114.4875 33.534374Q114.40938 33.565624 114.25313 33.58125Q114.09688 33.6125 113.84688 33.6125Q113.6125 33.6125 113.45625 33.58125Q113.3 33.565624 113.20625 33.534374Q113.1125 33.4875 113.08125 33.440624Q113.05 33.378124 113.05 33.3L113.05 24.51875Q113.05 24.440624 113.06563 24.39375Q113.09688 24.33125 113.19063 24.284374Q113.28438 24.2375 113.40938 24.221874Q113.55 24.20625 113.78438 24.20625Q113.9875 24.20625 114.12813 24.221874Q114.26875 24.2375 114.34688 24.284374Q114.425 24.33125 114.45625 24.39375Q114.50313 24.440624 114.50313 24.51875L114.50313 25.675Q115.2375 24.846874 115.94063 24.471874Q116.64375 24.08125 117.34688 24.08125Q117.89375 24.08125 118.33125 24.20625Q118.76875 24.33125 119.09688 24.565624Q119.425 24.784374 119.65938 25.1125Q119.89375 25.425 120.05 25.815624Q120.50313 25.33125 120.89375 25.003124Q121.28438 24.675 121.64375 24.471874Q122.01875 24.26875 122.3625 24.175Q122.70625 24.08125 123.06563 24.08125Q123.90938 24.08125 124.4875 24.378124Q125.06563 24.675 125.425 25.175Q125.78438 25.675 125.925 26.346874Q126.08125 27.003124 126.08125 27.753124L126.08125 33.3ZM135.65938 33.315624Q135.65938 33.425 135.58125 33.4875Q135.50313 33.55 135.3625 33.58125Q135.2375 33.6125 134.97188 33.6125Q134.72188 33.6125 134.56563 33.58125Q134.40938 33.55 134.34688 33.4875Q134.28438 33.425 134.28438 33.315624L134.28438 32.440624Q133.70625 33.05 132.9875 33.39375Q132.28438 33.7375 131.50313 33.7375Q130.8 33.7375 130.2375 33.55Q129.675 33.378124 129.28438 33.034374Q128.89375 32.690624 128.675 32.190624Q128.45625 31.690624 128.45625 31.065624Q128.45625 30.315624 128.75313 29.76875Q129.05 29.221874 129.6125 28.8625Q130.19063 28.503124 131.00313 28.33125Q131.83125 28.14375 132.84688 28.14375L134.06563 28.14375L134.06563 27.45625Q134.06563 26.940624 133.95625 26.55Q133.84688 26.159374 133.6125 25.909374Q133.37813 25.64375 132.9875 25.51875Q132.6125 25.378124 132.05 25.378124Q131.45625 25.378124 130.97188 25.534374Q130.50313 25.675 130.14375 25.846874Q129.8 26.003124 129.55 26.159374Q129.31563 26.3 129.20625 26.3Q129.12813 26.3 129.06563 26.26875Q129.00313 26.221874 128.95625 26.14375Q128.925 26.065624 128.89375 25.940624Q128.87813 25.815624 128.87813 25.675Q128.87813 25.425 128.90938 25.284374Q128.94063 25.14375 129.06563 25.01875Q129.20625 24.89375 129.53438 24.721874Q129.8625 24.55 130.26875 24.409374Q130.69063 24.26875 131.19063 24.175Q131.69063 24.08125 132.20625 24.08125Q133.14375 24.08125 133.8 24.3Q134.47188 24.503124 134.87813 24.925Q135.3 25.33125 135.47188 25.95625Q135.65938 26.565624 135.65938 27.39375L135.65938 33.315624ZM134.06563 29.3L132.69063 29.3Q132.01875 29.3 131.53438 29.409374Q131.05 29.51875 130.72188 29.753124Q130.40938 29.971874 130.25313 30.284374Q130.09688 30.58125 130.09688 30.9875Q130.09688 31.659374 130.53438 32.065624Q130.97188 32.471874 131.75313 32.471874Q132.37813 32.471874 132.925 32.159374Q133.47188 31.83125 134.06563 31.159374L134.06563 29.3Z" fill-rule="nonzero"/></svg>